<?xml version="1.0" encoding="utf-8"?>
<!-- Generator: Adobe Illustrator 16.0.0, SVG Export Plug-In . SVG Version: 6.00 Build 0)  -->
<!DOCTYPE svg PUBLIC "-//W3C//DTD SVG 1.1//EN" "http://www.w3.org/Graphics/SVG/1.1/DTD/svg11.dtd">
<svg version="1.1" id="Layer_1" xmlns="http://www.w3.org/2000/svg" xmlns:xlink="http://www.w3.org/1999/xlink" x="0px" y="0px"
	 width="256px" height="256px" viewBox="0 0 256 256" style="enable-background:new 0 0 256 256;" xml:space="preserve">
<g>
	<defs>
		<rect id="SVGID_1_" y="17" width="256" height="217.892"/>
	</defs>
	<clipPath id="SVGID_2_">
		<use xlink:href="#SVGID_1_"  style="overflow:visible;"/>
	</clipPath>
	<path style="clip-path:url(#SVGID_2_);" d="M128.37,165.538c-1.958,0-3.911-0.755-5.448-2.287l-91.825-91.39
		c-3.194-3.174-3.35-8.498-0.339-11.879c3.014-3.387,8.047-3.535,11.234-0.356l91.824,91.391c3.197,3.173,3.348,8.492,0.342,11.873
		C132.592,164.652,130.48,165.538,128.37,165.538"/>
	<path style="clip-path:url(#SVGID_2_);" d="M36.543,195.283c-2.062,0-4.11-0.832-5.667-2.506
		c-3.073-3.316-3.026-8.635,0.106-11.896l55.768-57.931c3.125-3.25,8.153-3.201,11.237,0.104c3.073,3.316,3.024,8.634-0.106,11.896
		l-55.768,57.936C40.565,194.484,38.556,195.283,36.543,195.283"/>
	<path style="clip-path:url(#SVGID_2_);" d="M219.46,195.283c-2.013,0-4.021-0.799-5.567-2.407l-55.775-57.925
		c-3.13-3.25-3.176-8.569-0.104-11.885c3.084-3.305,8.107-3.354,11.237-0.109l55.765,57.936c3.136,3.25,3.182,8.568,0.109,11.885
		C223.572,194.451,221.519,195.283,219.46,195.283"/>
	<path style="clip-path:url(#SVGID_2_);" d="M129.399,165.538c-2.09,0-4.172-0.864-5.729-2.582
		c-3.042-3.349-2.941-8.668,0.233-11.885L213.96,59.68c3.166-3.201,8.2-3.103,11.231,0.247c3.042,3.354,2.944,8.667-0.232,11.885
		l-90.061,91.385C133.362,164.762,131.381,165.538,129.399,165.538"/>
	<path style="clip-path:url(#SVGID_2_);" d="M206.453,234.892H49.539C22.223,234.892,0,211.384,0,182.49V69.398
		C0,40.507,22.218,17,49.539,17h156.915C233.77,17,256,40.507,256,69.398V182.49C256,211.384,233.774,234.892,206.453,234.892
		 M49.539,33.81c-18.552,0-33.646,15.961-33.646,35.589V182.49c0,19.622,15.094,35.592,33.646,35.592h156.915
		c18.553,0,33.654-15.97,33.654-35.592V69.398c0-19.627-15.102-35.589-33.654-35.589H49.539"/>
</g>
</svg>
