<?xml version="1.0" encoding="utf-8"?>
<!DOCTYPE svg PUBLIC "-//W3C//DTD SVG 1.1//EN" "http://www.w3.org/Graphics/SVG/1.1/DTD/svg11.dtd">
<svg version="1.1" id="Layer_1" xmlns="http://www.w3.org/2000/svg" xmlns:xlink="http://www.w3.org/1999/xlink" x="0px" y="0px"
	 width="256px" height="256px" viewBox="0 0 256 256" style="enable-background:new 0 0 256 256;" xml:space="preserve">
<g>
	<defs>
		<rect id="SVGID_1_" y="4" width="255.74" height="247.545"/>
	</defs>
	<clipPath id="SVGID_2_">
		<use xlink:href="#SVGID_1_"  style="overflow:visible;"/>
	</clipPath>
	<path style="clip-path:url(#SVGID_2_);fill:#40c3f7;" d="M127.809,4.008v0.063c-0.032,0-0.056,0-0.08,0c-0.207,0.006-0.405,0.031-0.608,0.082
		c-0.062-0.008-0.125-0.008-0.19,0c-0.032-0.008-0.062-0.008-0.085,0c-0.098,0.03-0.191,0.063-0.291,0.101c-0.021,0-0.053,0-0.089,0
		c-0.054,0.028-0.102,0.059-0.155,0.083c-0.067,0.031-0.137,0.062-0.202,0.093L65.346,30.527c-1.774,0.327-3.116,1.792-3.275,3.586
		c0,0.032-0.007,0.063-0.015,0.094c-0.023,0.264-0.023,0.515,0,0.771v76.758L3.411,136.953c-1.079,0.188-2.039,0.82-2.636,1.731
		c-0.023,0.032-0.046,0.063-0.066,0.095c-0.007,0-0.015,0-0.015,0c-0.008,0-0.016,0-0.016,0c-0.612,0.912-0.822,2.043-0.573,3.11
		v78.863c0,0.038,0,0.062,0,0.085c0,0.031,0,0.062,0,0.095c0,0.092,0,0.2,0.016,0.295c0.12,1.488,1.068,2.793,2.46,3.368
		l61.058,26.249c0.686,0.464,1.5,0.717,2.339,0.7c0.83,0.017,1.645-0.227,2.339-0.687l59.545-25.59l59.548,25.576
		c0.687,0.464,1.508,0.717,2.34,0.7c0.835,0.017,1.645-0.227,2.331-0.687l61.078-26.246c1.59-0.648,2.595-2.248,2.47-3.96v-78.693
		c0.267-1.13,0.026-2.307-0.67-3.242c-0.592-0.897-1.535-1.514-2.597-1.701l-58.543-25.169V34.948
		c0.023-0.272,0.017-0.537-0.014-0.818c-0.158-1.793-1.498-3.26-3.277-3.587L129.726,4.397c-0.414-0.207-0.856-0.335-1.31-0.39
		c-0.069,0-0.141,0-0.218,0C128.064,4,127.939,4,127.809,4.008 M127.931,12.433l9.608,4.124l-51.807,22.25l-9.574-4.109
		L127.931,12.433z M147.645,20.89l12.381,5.318l-53.193,22.876c-1.93,0.749-2.987,2.838-2.417,4.828v23.431l-3.275-4.944
		c-1.114-1.668-3.313-2.261-5.119-1.356l-4.796,2.417V45.154L147.645,20.89z M170.124,30.566l9.599,4.117l-51.792,22.27
		l-9.605-4.125L170.124,30.566z M70.041,40.757l13.201,5.66v33.521c-0.007,2.207,1.778,3.993,3.984,3.993
		c0.621,0,1.237-0.141,1.793-0.421l7.428-3.751l8.39,12.647c0.983,1.98,3.38,2.784,5.353,1.801c1.158-0.569,1.962-1.676,2.165-2.948
		c0.008-0.03,0.008-0.054,0.014-0.077c0.016-0.117,0.023-0.227,0.032-0.344c0-0.022,0-0.054,0-0.085c0.008-0.125,0.008-0.25,0-0.39
		V58.933l11.535,4.976v71.144l-53.895-23.159V40.757z M185.837,40.757v71.105l-53.913,23.174V63.939L185.837,40.757z
		 M65.978,118.864l9.606,4.125l-51.813,22.277l-9.591-4.132L65.978,118.864z M189.828,118.864l9.528,4.094l-51.806,22.269
		l-9.529-4.093L189.828,118.864z M85.698,127.309l12.37,5.326l-53.194,22.86c-1.571,0.68-2.537,2.286-2.401,3.994
		c0,0.085,0,0.163,0,0.248v24.032l-3.275-4.951c-1.118-1.678-3.313-2.253-5.119-1.35l-4.815,2.418v-28.328L85.698,127.309z
		 M209.479,127.309l12.38,5.326l-53.209,22.86c-1.55,0.656-2.52,2.223-2.418,3.899c0,0.109,0,0.234,0,0.343v24.016l-3.274-4.935
		c-1.113-1.678-3.312-2.253-5.114-1.35l-4.802,2.418v-28.328L209.479,127.309z M108.177,136.97l9.603,4.132l-51.787,22.27
		l-9.599-4.132L108.177,136.97z M231.95,136.97l9.605,4.132l-51.796,22.27l-9.601-4.132L231.95,136.97z M8.089,147.169l13.189,5.675
		v33.514c0.008,2.208,1.798,3.984,4,3.978c0.624,0,1.232-0.14,1.789-0.423l7.436-3.725l8.62,13.021
		c1.217,1.84,3.692,2.354,5.536,1.146c1.123-0.741,1.805-2.013,1.797-3.361v-31.61l11.544,4.959V241.5L8.089,218.328V147.169z
		 M123.874,147.169v71.143l-53.888,23.175v-71.16L123.874,147.169z M131.854,147.169l13.202,5.675v33.514
		c0.008,2.208,1.8,3.984,4,3.978c0.624,0,1.231-0.14,1.777-0.423l7.429-3.725l8.422,12.693c1.021,1.956,3.43,2.706,5.39,1.685
		c1.005-0.531,1.746-1.458,2.018-2.56c0.017-0.075,0.047-0.153,0.063-0.233c0.007-0.038,0.017-0.078,0.017-0.108
		c0.023-0.133,0.037-0.273,0.045-0.406c0.007-0.139,0.007-0.271,0-0.405v-31.438l11.542,4.959v71.158l-53.904-23.172v-71.16V147.169
		z M247.646,147.169v71.159L193.744,241.5v-71.157L247.646,147.169z M220.471,196.946c-0.497,0.024-0.98,0.142-1.441,0.345
		l-15.432,6.626c-2.026,0.866-2.97,3.221-2.098,5.249c0.866,2.026,3.213,2.97,5.249,2.098l15.438-6.646
		c2.035-0.856,2.995-3.188,2.146-5.223C223.684,197.853,222.148,196.876,220.471,196.946 M231.171,208.923v0.017
		c-0.502,0.015-0.983,0.125-1.437,0.328l-26.104,10.83c-2.053,0.842-3.027,3.183-2.194,5.223c0.835,2.045,3.175,3.026,5.218,2.198
		c0.017-0.005,0.033-0.014,0.048-0.021l26.104-10.887c2.046-0.826,3.027-3.166,2.192-5.207
		C234.375,209.859,232.839,208.869,231.171,208.923"/>
</g>
</svg>
