<?xml version="1.0" encoding="utf-8"?>
<!-- Generator: Adobe Illustrator 16.0.0, SVG Export Plug-In . SVG Version: 6.00 Build 0)  -->
<!DOCTYPE svg PUBLIC "-//W3C//DTD SVG 1.1//EN" "http://www.w3.org/Graphics/SVG/1.1/DTD/svg11.dtd">
<svg version="1.1" id="Layer_1" xmlns="http://www.w3.org/2000/svg" xmlns:xlink="http://www.w3.org/1999/xlink" x="0px" y="0px"
	 width="256px" height="256px" viewBox="0 0 256 256" style="enable-background:new 0 0 256 256;" xml:space="preserve">
<g>
	<defs>
		<rect id="SVGID_1_" x="22.779" width="208.366" height="256"/>
	</defs>
	<clipPath id="SVGID_2_">
		<use xlink:href="#SVGID_1_"  style="overflow:visible;"/>
	</clipPath>
	<path style="clip-path:url(#SVGID_2_);" d="M182.245,105.05c0,13.288-4.783,26.044-13.289,35.878
		c-3.454,3.985-9.301,4.251-13.022,1.061c-3.986-3.454-4.251-9.301-1.062-13.02c5.58-6.644,8.77-15.149,8.77-23.918
		c0-20.198-16.478-36.675-36.674-36.675c-20.198,0-36.675,16.478-36.675,36.675c0,20.196,16.478,36.674,36.675,36.674
		c5.048,0,9.301,4.251,9.301,9.302s-4.253,9.302-9.301,9.302c-30.562,0-55.278-24.715-55.278-55.277
		c0-30.562,24.716-55.278,55.278-55.278C157.53,49.771,182.245,74.488,182.245,105.05 M228.487,127.107
		c-1.596,6.909-3.986,13.82-6.911,20.464c-10.631,24.979-33.483,63.25-83.446,104.442c-3.189,2.658-7.177,3.986-11.163,3.986
		c-3.986,0-7.972-1.328-11.162-3.986c-49.697-41.192-72.818-79.728-83.448-104.442c-2.924-6.644-5.315-13.555-6.91-20.464
		c-0.532-1.861-0.532-2.923-0.797-3.455c-1.86-9.834-2.393-19.667-1.329-29.766c5.049-51.823,47.836-91.953,99.924-93.812
		c28.437-1.064,55.544,9.301,76.009,29.233c20.461,19.666,31.891,46.242,31.891,74.943c0,6.644-0.532,13.289-1.861,19.667
		C229.018,124.716,228.752,125.778,228.487,127.107 M212.542,103.986c0-23.387-9.301-45.179-26.046-61.39
		c-16.742-16.211-39.064-24.716-62.452-23.917c-42.788,1.593-77.868,34.548-82.119,77.07c-0.798,8.237-0.532,16.476,1.063,24.449
		v0.266c0,0.266,0.266,1.063,0.531,2.126c1.329,5.847,3.189,11.694,5.847,17.01v0.265c9.567,22.856,31.094,58.201,77.334,97.002
		c46.508-38.801,67.769-74.146,77.337-97.002v-0.265c2.391-5.315,4.519-11.163,5.848-17.01c0.265-1.329,0.529-2.126,0.529-2.392
		v-0.266C212.01,114.882,212.542,109.301,212.542,103.986"/>
</g>
</svg>
