<?xml version="1.0" encoding="utf-8"?>
<!-- Generator: Adobe Illustrator 16.0.0, SVG Export Plug-In . SVG Version: 6.00 Build 0)  -->
<!DOCTYPE svg PUBLIC "-//W3C//DTD SVG 1.1//EN" "http://www.w3.org/Graphics/SVG/1.1/DTD/svg11.dtd">
<svg version="1.1" id="Layer_1" xmlns="http://www.w3.org/2000/svg" xmlns:xlink="http://www.w3.org/1999/xlink" x="0px" y="0px"
	 width="256px" height="256px" viewBox="0 0 256 256" style="enable-background:new 0 0 256 256;" xml:space="preserve">
<g>
	<defs>
		<rect id="SVGID_1_" width="256" height="255.118"/>
	</defs>
	<clipPath id="SVGID_2_">
		<use xlink:href="#SVGID_1_"  style="overflow:visible;"/>
	</clipPath>
	<path style="clip-path:url(#SVGID_2_);" d="M246.796,179.241c12.269,12.269,12.269,30.027,0,42.943l-19.373,19.372
		c-7.75,7.751-17.112,12.27-28.091,13.24c-1.937,0.321-3.876,0.321-5.812,0.321c-14.852,0-28.091-4.196-37.131-7.75
		c-24.862-9.04-47.461-22.923-72.002-43.264c-29.706-24.863-52.951-54.568-69.419-88.471C8.835,102.396,1.406,84.96,0.113,65.265
		c-0.965-15.822,4.2-28.738,14.854-38.746l0.325-0.323c3.229-2.906,6.458-6.134,9.686-9.363c2.258-2.584,4.843-4.843,7.423-7.427
		C45.642-3.186,63.076-3.186,75.99,9.729l30.674,30.674c6.136,5.811,9.686,13.238,9.686,20.987c0,8.072-3.229,15.498-9.686,21.956
		l-19.048,19.051c-4.519,4.52-11.626,4.52-16.144,0c-4.519-4.522-4.519-11.624,0-16.145L90.52,67.201
		c1.939-1.936,2.907-3.874,2.907-5.812c0-1.938-1.614-3.875-2.907-5.166L59.525,25.227c-4.197-4.197-7.75-3.874-11.944,0.323
		c-2.264,2.261-4.521,4.198-6.782,6.781c-3.554,3.552-7.104,7.426-11.301,10.978c-5.812,5.49-8.072,11.624-7.425,20.342
		c0.968,15.821,7.425,30.674,12.593,41.975c14.852,30.996,36.16,58.119,63.284,80.721c23.245,18.726,43.91,31.32,66.19,39.713
		c13.236,4.844,23.569,6.779,33.256,6.136c5.489-0.646,10.008-2.585,14.205-6.457l19.051-19.051c4.844-5.165,2.262-8.719,0-11.301
		l-0.321-0.321c-3.229-3.229-6.457-6.458-9.687-10.012c-1.939-1.614-3.554-3.55-5.489-5.489l-15.177-15.174
		c-4.521-4.521-7.425-4.521-11.946,0l-4.844,4.844c-4.843,4.519-9.04,9.04-13.562,13.883l-0.321,0.322
		c-7.104,7.104-14.209,4.521-16.466,3.875c-0.325,0-0.647-0.322-0.647-0.322c-10.01-4.199-19.05-9.686-30.348-18.404
		c-10.98-9.04-20.344-18.084-28.738-27.445c-4.2-4.843-3.55-11.946,0.968-15.822c4.843-4.197,11.947-3.551,15.819,0.969
		c7.429,8.717,15.822,16.789,25.831,24.861c7.428,5.811,13.887,10.332,20.344,13.239c3.551-3.875,7.425-7.429,10.977-10.979
		l4.843-4.844c13.24-13.236,30.674-13.236,43.913,0l15.174,15.177l5.167,5.164C239.691,172.138,243.245,175.69,246.796,179.241"/>
</g>
</svg>
