<?xml version="1.0" encoding="utf-8"?>
<!-- Generator: Adobe Illustrator 16.0.0, SVG Export Plug-In . SVG Version: 6.00 Build 0)  -->
<!DOCTYPE svg PUBLIC "-//W3C//DTD SVG 1.1//EN" "http://www.w3.org/Graphics/SVG/1.1/DTD/svg11.dtd">
<svg version="1.1" id="Layer_1" xmlns="http://www.w3.org/2000/svg" xmlns:xlink="http://www.w3.org/1999/xlink" x="0px" y="0px"
	 width="256px" height="256px" viewBox="0 0 256 256" style="enable-background:new 0 0 256 256;" xml:space="preserve">
<g>
	<defs>
		<rect id="SVGID_1_" x="36" width="182.87" height="256"/>
	</defs>
	<clipPath id="SVGID_2_">
		<use xlink:href="#SVGID_1_"  style="overflow:visible;"/>
	</clipPath>
	<path style="clip-path:url(#SVGID_2_);fill:#40c3f7;" d="M128.31,0v0.018c-5.121-0.201-10.322,1.317-14.648,4.572
		c-7.148,5.384-10.269,14.349-8.532,22.823H86.285c-2.522,0-4.572,2.049-4.572,4.572v4.572H40.567c-2.522,0-4.572,2.049-4.572,4.572
		v210.301c0,2.526,2.049,4.571,4.572,4.571h173.73c2.519,0,4.572-2.045,4.572-4.571V41.128c0-2.522-2.054-4.572-4.572-4.572h-41.146
		v-4.572c0-2.522-2.054-4.572-4.571-4.572h-18.788c1.6-7.844-0.99-16.211-7.25-21.733C138.489,2.103,133.426,0.192,128.31,0
		 M127.971,9.125c3.063,0.121,6.08,1.255,8.536,3.411c4.902,4.326,6.063,11.438,2.821,17.108c-1.063,1.866-0.688,4.224,0.911,5.657
		c0,0.009,0.009,0.022,0.019,0.022c0.08,0.063,0.151,0.125,0.231,0.179c0.026,0.031,0.054,0.058,0.089,0.094
		c0.055,0.036,0.125,0.081,0.18,0.121c0.115,0.081,0.231,0.161,0.356,0.237c0.036,0.009,0.063,0.018,0.089,0.036
		c0.688,0.375,1.456,0.567,2.232,0.567h20.573v3.822c-0.089,0.496-0.089,1.004,0,1.5v16.787c-0.089,0.495-0.089,1.004,0,1.5v3.822
		H90.856v-3.857c0.085-0.487,0.085-0.978,0-1.464V41.842c0.085-0.487,0.085-0.978,0-1.464v-3.822h20.573
		c2.527,0.036,4.612-1.973,4.648-4.5c0.009-0.866-0.219-1.728-0.679-2.469c-0.089-0.29-0.21-0.585-0.357-0.848
		c-2.804-5.907-1.076-12.912,4.144-16.841C121.792,9.92,124.908,9.005,127.971,9.125 M45.139,45.7h36.574v9.144H58.854
		c-2.523,0-4.572,2.049-4.572,4.572v173.727c0,2.526,2.049,4.571,4.572,4.571h137.156c2.519,0,4.572-2.045,4.572-4.571V59.415
		c0-2.522-2.054-4.572-4.572-4.572h-22.858V45.7h36.574v201.157H45.139V45.7z M63.426,63.987h18.287v4.572
		c0,2.522,2.049,4.571,4.572,4.571h82.296c2.518,0,4.571-2.049,4.571-4.571v-4.572h18.287v164.583H63.426V63.987z M104.666,91.417
		c-1.188,0.036-2.313,0.531-3.147,1.371l-15.14,15.042l-5.96-5.916c-1.759-1.809-4.657-1.866-6.465-0.107
		c-1.822,1.754-1.875,4.652-0.121,6.46c0.044,0.049,0.089,0.094,0.138,0.129l9.179,9.125c1.782,1.772,4.661,1.772,6.447,0
		l18.349-18.251c1.822-1.755,1.866-4.644,0.112-6.465C107.17,91.89,105.947,91.39,104.666,91.417 M122.466,91.417
		c-2.522,0.129-4.46,2.277-4.331,4.799c0.125,2.532,2.277,4.474,4.799,4.344h27.431c2.527,0.036,4.599-1.982,4.635-4.509
		c0.035-2.522-1.982-4.599-4.51-4.634c-0.045,0-0.08,0-0.125,0h-27.431C122.778,91.408,122.622,91.408,122.466,91.417
		 M122.578,109.704c-2.522,0.129-4.474,2.277-4.344,4.799c0.129,2.532,2.286,4.474,4.809,4.344h54.504
		c2.526,0.036,4.599-1.982,4.634-4.509c0.045-2.522-1.982-4.599-4.5-4.634c-0.054,0-0.099,0-0.134,0h-54.504
		C122.89,109.695,122.734,109.695,122.578,109.704 M104.666,137.135c-1.188,0.035-2.313,0.526-3.147,1.375l-15.14,15.037
		l-5.96-5.911c-1.759-1.813-4.657-1.866-6.465-0.116c-1.822,1.759-1.875,4.651-0.121,6.465c0.044,0.044,0.089,0.089,0.138,0.134
		l9.179,9.125c1.782,1.769,4.661,1.769,6.447,0l18.349-18.251c1.822-1.759,1.866-4.652,0.112-6.465
		C107.17,137.607,105.947,137.107,104.666,137.135 M122.466,137.135c-2.522,0.125-4.46,2.276-4.331,4.804
		c0.125,2.527,2.277,4.465,4.799,4.34h27.431c2.527,0.035,4.599-1.982,4.635-4.51c0.035-2.518-1.982-4.599-4.51-4.634
		c-0.045,0-0.08,0-0.125,0h-27.431C122.778,137.126,122.622,137.126,122.466,137.135 M122.578,155.422
		c-2.522,0.125-4.474,2.276-4.344,4.804c0.129,2.526,2.286,4.465,4.809,4.34h54.504c2.526,0.035,4.599-1.982,4.634-4.51
		c0.045-2.518-1.982-4.599-4.5-4.634c-0.054,0-0.099,0-0.134,0h-54.504C122.89,155.413,122.734,155.413,122.578,155.422
		 M104.666,182.852c-1.188,0.036-2.313,0.527-3.147,1.376l-15.14,15.036l-5.96-5.911c-1.759-1.813-4.657-1.866-6.465-0.116
		c-1.822,1.76-1.875,4.652-0.121,6.465c0.044,0.045,0.089,0.09,0.138,0.134l9.179,9.126c1.782,1.768,4.661,1.768,6.447,0
		l18.349-18.251c1.822-1.76,1.866-4.652,0.112-6.465C107.17,183.325,105.947,182.825,104.666,182.852 M122.466,182.852
		c-2.522,0.125-4.46,2.277-4.331,4.805c0.125,2.526,2.277,4.464,4.799,4.339h27.431c2.527,0.036,4.599-1.981,4.635-4.509
		c0.035-2.519-1.982-4.599-4.51-4.635c-0.045,0-0.08,0-0.125,0h-27.431C122.778,182.843,122.622,182.843,122.466,182.852
		 M122.578,201.139c-2.522,0.125-4.474,2.277-4.344,4.805c0.129,2.526,2.286,4.464,4.809,4.339h54.504
		c2.526,0.036,4.599-1.982,4.634-4.509c0.045-2.519-1.982-4.599-4.5-4.635c-0.054,0-0.099,0-0.134,0h-54.504
		C122.89,201.13,122.734,201.13,122.578,201.139"/>
</g>
</svg>
