<?xml version="1.0" encoding="utf-8"?>
<!-- Generator: Adobe Illustrator 16.0.0, SVG Export Plug-In . SVG Version: 6.00 Build 0)  -->
<!DOCTYPE svg PUBLIC "-//W3C//DTD SVG 1.1//EN" "http://www.w3.org/Graphics/SVG/1.1/DTD/svg11.dtd">
<svg version="1.1" id="Layer_1" xmlns="http://www.w3.org/2000/svg" xmlns:xlink="http://www.w3.org/1999/xlink" x="0px" y="0px"
	 width="256px" height="256px" viewBox="0 0 256 256" style="enable-background:new 0 0 256 256;" xml:space="preserve">
<g>
	<defs>
		<rect id="SVGID_1_" width="256" height="255.835"/>
	</defs>
	<clipPath id="SVGID_2_">
		<use xlink:href="#SVGID_1_"  style="overflow:visible;"/>
	</clipPath>
	<path style="clip-path:url(#SVGID_2_);" d="M247.563,71.773c-5.802-14.292-14.306-27.097-25.27-38.048
		c-10.968-10.978-23.768-19.487-38.064-25.289C170.443,2.848,155.889,0.01,140.945,0h-0.043c-14.919,0-29.463,2.826-43.226,8.4
		c-14.258,5.773-27.068,14.258-38.07,25.24c-4.859,4.857-4.869,12.734-0.01,17.589c4.855,4.872,12.732,4.872,17.592,0.022
		c8.625-8.616,18.66-15.269,29.828-19.786c10.778-4.369,22.179-6.584,33.886-6.584h0.034c11.721,0.01,23.15,2.235,33.948,6.609
		c11.191,4.543,21.217,11.211,29.828,19.824c8.601,8.594,15.264,18.627,19.802,29.809c4.379,10.808,6.6,22.228,6.6,33.927
		c0,11.694-2.221,23.102-6.595,33.895c-4.548,11.182-11.211,21.212-19.807,29.799c-8.626,8.611-18.656,15.269-29.823,19.793
		c-10.778,4.364-22.169,6.575-33.861,6.575c-11.721-0.049-23.175-2.221-34.012-6.614c-11.177-4.529-21.212-11.201-29.818-19.808
		c-8.601-8.597-15.264-18.626-19.812-29.808c-4.374-10.798-6.594-22.218-6.594-33.932c0-6.872-5.569-12.44-12.44-12.44
		c-6.872,0-12.44,5.569-12.44,12.44c0,14.938,2.833,29.504,8.421,43.287c4.238,10.438,9.952,20.045,16.965,28.754L3.649,234.599
		c-4.864,4.854-4.864,12.732-0.005,17.592c2.43,2.43,5.613,3.645,8.801,3.645c3.183,0,6.366-1.215,8.791-3.64l47.662-47.614
		c8.708,7.032,18.335,12.742,28.769,16.979c13.801,5.589,28.365,8.427,43.283,8.432h0.088c14.904,0,29.439-2.824,43.196-8.397
		c14.263-5.769,27.067-14.263,38.06-25.245c10.974-10.954,19.478-23.749,25.284-38.046c5.589-13.791,8.422-28.341,8.422-43.25
		C255.99,100.13,253.152,85.571,247.563,71.773 M170.759,162.396c2.425,2.43,5.613,3.645,8.796,3.645
		c3.188,0,6.366-1.215,8.801-3.64c12.645-12.645,19.604-29.468,19.604-47.375c0-17.91-6.959-34.743-19.604-47.388
		c-4.864-4.862-12.737-4.862-17.597,0c-4.864,4.855-4.864,12.732,0,17.589c7.945,7.953,12.319,18.532,12.319,29.798
		c0,11.265-4.374,21.839-12.319,29.775C165.899,149.659,165.899,157.536,170.759,162.396"/>
</g>
</svg>
