<svg xmlns="http://www.w3.org/2000/svg" xmlns:xlink="http://www.w3.org/1999/xlink" width="53.998" height="68.747" viewBox="0 0 53.998 68.747"><defs><path id="a" d="M0 0h53.998v68.747H0z"/></defs><clipPath id="b"><use xlink:href="#a" overflow="visible"/></clipPath><path d="M39.035 10.372c-.011.96-.416 1.376-1.376 1.376H16.5c-1.178 0-1.534-.366-1.534-1.574-.01-.94-.01-2.296 0-3.236.01-.831.435-1.237 1.267-1.277.891-.03 1.801.02 2.672-.148 1.514-.307 2.702-1.178 3.484-2.543.267-.465.515-.94.792-1.405C23.785.546 24.685.031 25.863.011c.683-.02 1.366.01 2.049-.01 1.386-.03 2.354.604 3.048 1.781.523.881 1.059 1.801 1.771 2.514 1.108 1.098 2.543 1.435 4.098 1.385 2.078-.059 2.207.109 2.207 2.157-.001.713.009 1.831-.001 2.534m-1.75 15.673l-13.653.001v2.999h13.653v.001h6.504v-3.002l-6.504.001m6.504 12.533h-8.448v-.001h-11.71v3.002h11.71v-.002h8.448zM10.208 27.153a.932.932 0 0 0 .061.31l.367.695c.075.127.146.263.216.396.07.135.145.272.217.402l.548 1.007c.076.129.149.257.228.409l.343.627c.113.205.34.443.553.578.164.106.369.162.591.162.416 0 .847-.191 1.124-.498.155-.173.31-.354.463-.537l.319-.374c.46-.551.927-1.103 1.397-1.658l1.714-2.028c.381-.457.764-.914 1.161-1.374l.491-.596c.354-.377.254-.797.101-.988-.266-.337-.716-.429-1.018-.21-.33.249-.631.535-.897.787-.482.447-.969.885-1.46 1.323l-.57.525c-.344.316-.689.634-1.039.949l-1.668 1.52-1.926-2.025a.82.82 0 0 0-.539-.19l-.062.002a1.028 1.028 0 0 0-.456.206.755.755 0 0 0-.259.58m5.016 7.93a5.005 5.005 0 0 0-4.995 4.995 5 5 0 0 0 4.995 4.995 4.993 4.993 0 0 0 4.995-4.995 4.998 4.998 0 0 0-4.995-4.995m0 8.298c-1.825 0-3.303-1.478-3.303-3.303s1.478-3.303 3.303-3.303 3.303 1.478 3.303 3.303-1.478 3.303-3.303 3.303m28.565 8.531h-8.448v-.001h-11.71v3.002h11.71v-.002h8.448zm-28.565-3.495a5.005 5.005 0 0 0-4.995 4.995 5 5 0 0 0 4.995 4.995 4.993 4.993 0 0 0 4.995-4.995 4.998 4.998 0 0 0-4.995-4.995m0 8.298c-1.825 0-3.303-1.478-3.303-3.303s1.478-3.303 3.303-3.303 3.303 1.478 3.303 3.303-1.478 3.303-3.303 3.303" clip-path="url(#b)" fill="#fff"/><path d="M43.331 8.407h-2.395v1.984h2.395c4.787 0 8.683 3.895 8.683 8.683V58.08c0 4.788-3.896 8.683-8.683 8.683H10.667c-4.787 0-8.682-3.895-8.682-8.683V19.074c0-4.788 3.895-8.683 8.682-8.683h2.394V8.407h-2.394C4.786 8.407 0 13.192 0 19.074V58.08c0 5.882 4.786 10.667 10.667 10.667h32.665c5.882 0 10.667-4.785 10.667-10.667V19.074c-.001-5.882-4.786-10.667-10.668-10.667" clip-path="url(#b)" fill="#fff"/></svg>