<svg xmlns="http://www.w3.org/2000/svg" xmlns:xlink="http://www.w3.org/1999/xlink" width="98.244" height="68.8" viewBox="0 0 98.244 68.8"><defs><path id="a" d="M0 0h98.244v68.8H0z"/></defs><clipPath id="b"><use xlink:href="#a" overflow="visible"/></clipPath><path d="M0 62.5V6.1C0 2.8 2.7 0 6.1 0h72.6c3.3 0 6.1 2.7 6.1 6.1v3.8c0 1-.8 1.8-1.8 1.8s-1.8-.8-1.8-1.8V6.1c0-1.4-1.2-2.6-2.601-2.6H6.1c-1.4 0-2.6 1.2-2.6 2.6v10.2h70.6c1 0 1.801.8 1.801 1.8s-.801 1.8-1.801 1.8H3.5v42.7c0 1.4 1.2 2.6 2.6 2.6h31.5c1 0 1.8.8 1.8 1.8s-.8 1.8-1.8 1.8H6.1c-3.4-.3-6.1-3-6.1-6.3M8.6 8.7c-.3.3-.5.8-.5 1.2s.2.9.5 1.2c.3.3.8.5 1.2.5.4 0 .9-.2 1.2-.5.3-.3.5-.8.5-1.2s-.2-.9-.5-1.2c-.6-.7-1.7-.7-2.4 0m8.1 0c-.3.3-.5.8-.5 1.2s.2.9.5 1.2c.3.3.8.5 1.2.5.5 0 .9-.2 1.2-.5.3-.3.5-.8.5-1.2s-.2-.9-.5-1.2c-.5-.7-1.7-.7-2.4 0m8.2 0c-.3.3-.5.8-.5 1.2s.2.9.5 1.2c.3.3.8.5 1.2.5s.9-.2 1.2-.5c.3-.3.5-.8.5-1.2s-.2-.9-.5-1.2c-.6-.7-1.8-.7-2.4 0M59.4 42L85 16.4c.8-.8 1.8-1.2 2.9-1h.2c.601.1 1.4.2 2.101.5 3.399 1.4 5.899 3.8 7.399 7.3.301.6.4 1.2.5 1.7 0 .2.101.4.101.6 0 .2.1.4 0 .6-.101 1-.5 1.8-1.101 2.4-7.8 7.7-29.2 29.1-36.9 36.8-.5.5-1.2.9-1.9 1-2.7.6-5.399 1.1-8 1.7l-2 .399c-.2 0-.4.101-.6.101-.8 0-1.6-.4-2.1-1-.5-.601-.7-1.5-.5-2.4l.3-1.6c.6-2.8 1.2-5.7 1.8-8.5.1-.601.5-1.3 1-1.8 1.7-1.7 3.399-3.4 5.1-5.2l6.1-6zm24.7-19.8l7.101 7.1 3.399-3.4.101-.1c0-.1 0-.2-.101-.3-.1-.4-.199-.8-.3-1-1.1-2.6-3-4.4-5.5-5.4-.3-.1-.7-.2-1.2-.2h-.1c-.9.8-2 1.9-3.4 3.3M61.9 44.399l-6.2 6.2-5.1 5.101c-.699 2.899-1.3 5.699-1.8 8.5l-.1.5.899-.2c2.7-.601 5.4-1.101 8-1.7.101 0 .101 0 .2-.1C64 56.399 79.2 41.3 88.9 31.6l-7.1-7.1-19.9 19.899M63.2 26.1H11.9c-1 0-1.8.8-1.8 1.8s.8 1.8 1.8 1.8h51.3c1 0 1.8-.8 1.8-1.8s-.8-1.8-1.8-1.8M11.9 39.3h39.2c1 0 1.801-.8 1.801-1.8s-.801-1.8-1.801-1.8H11.9c-1 0-1.8.8-1.8 1.8s.9 1.8 1.8 1.8m0 9.8h30.7c1 0 1.8-.8 1.8-1.8s-.8-1.8-1.8-1.8H11.9c-1 0-1.8.8-1.8 1.8s.9 1.8 1.8 1.8m0 9.7h26c1 0 1.8-.8 1.8-1.8s-.8-1.7-1.7-1.7H12c-1 0-1.8.8-1.8 1.8s.8 1.7 1.7 1.7" clip-path="url(#b)" fill="#fff"/></svg>