<svg xmlns="http://www.w3.org/2000/svg" xmlns:xlink="http://www.w3.org/1999/xlink" width="80" height="80" viewBox="0 0 80 80"><defs><path id="a" d="M0 0h80v80H0z"/></defs><clipPath id="b"><use xlink:href="#a" overflow="visible"/></clipPath><path d="M32.039 21.503a2.5 2.5 0 1 0-.071 5h23.979a2.5 2.5 0 1 0 .071-5H32.039zm-.211 15.998a2.5 2.5 0 1 0-.071 5h24.19a2.5 2.5 0 1 0 .071-5h-24.19zm-7.849-15.998a2.5 2.5 0 1 1-.002 4.998 2.5 2.5 0 0 1 .002-4.998m7.994 31.998a2.5 2.5 0 1 0-.071 5h24.046a2.5 2.5 0 1 0 .07-5H31.973zm-7.994-15.999a2.5 2.5 0 1 1-.002 4.998 2.5 2.5 0 0 1 .002-4.998m0 15.999a2.5 2.5 0 1 1 0 5 2.5 2.5 0 0 1 0-5" clip-path="url(#b)" fill="#fff"/><path d="M40 0C17.938 0 0 17.938 0 40s17.938 40 40 40 40-17.938 40-40S62.062 0 40 0m0 5c19.36 0 35 15.64 35 35S59.36 75 40 75 5 59.36 5 40 20.64 5 40 5" clip-path="url(#b)" fill="#fff"/></svg>