<?xml version="1.0" encoding="utf-8"?>
<!-- Generator: Adobe Illustrator 16.0.0, SVG Export Plug-In . SVG Version: 6.00 Build 0)  -->
<!DOCTYPE svg PUBLIC "-//W3C//DTD SVG 1.1//EN" "http://www.w3.org/Graphics/SVG/1.1/DTD/svg11.dtd">
<svg version="1.1" id="Layer_1" xmlns="http://www.w3.org/2000/svg" xmlns:xlink="http://www.w3.org/1999/xlink" x="0px" y="0px"
	 width="53.998px" height="68.747px" viewBox="0 0 53.998 68.747" style="enable-background:new 0 0 53.998 68.747;"
	 xml:space="preserve">
<g>
	<defs>
		<rect id="SVGID_1_" width="53.998" height="68.747"/>
	</defs>
	<clipPath id="SVGID_2_">
		<use xlink:href="#SVGID_1_"  style="overflow:visible;"/>
	</clipPath>
	<path style="clip-path:url(#SVGID_2_);fill:#FFFFFF;" d="M39.035,10.372c-0.011,0.96-0.416,1.376-1.376,1.376H16.5
		c-1.178,0-1.534-0.366-1.534-1.574c-0.01-0.94-0.01-2.296,0-3.236c0.01-0.831,0.435-1.237,1.267-1.277
		c0.891-0.03,1.801,0.02,2.672-0.148c1.514-0.307,2.702-1.178,3.484-2.543c0.267-0.465,0.515-0.94,0.792-1.405
		c0.604-1.019,1.504-1.534,2.682-1.554c0.683-0.02,1.366,0.01,2.049-0.01c1.386-0.03,2.354,0.604,3.048,1.781
		c0.523,0.881,1.059,1.801,1.771,2.514c1.108,1.098,2.543,1.435,4.098,1.385c2.078-0.059,2.207,0.109,2.207,2.157
		C39.035,8.551,39.045,9.669,39.035,10.372"/>
	<path style="clip-path:url(#SVGID_2_);fill:#FFFFFF;" d="M37.285,26.045L37.285,26.045l-13.653,0.001v2.999h13.653v0.001h6.504
		v-3.002C40.71,26.045,40.392,26.045,37.285,26.045"/>
	<polygon style="clip-path:url(#SVGID_2_);fill:#FFFFFF;" points="43.789,38.578 35.341,38.578 35.341,38.577 23.631,38.577 
		23.631,41.579 35.341,41.579 35.341,41.577 43.789,41.577 	"/>
	<path style="clip-path:url(#SVGID_2_);fill:#FFFFFF;" d="M10.208,27.153c0.006,0.119,0.029,0.243,0.061,0.31l0.367,0.695
		c0.075,0.127,0.146,0.263,0.216,0.396c0.07,0.135,0.145,0.272,0.217,0.402l0.548,1.007c0.076,0.129,0.149,0.257,0.228,0.409
		l0.343,0.627c0.113,0.205,0.34,0.443,0.553,0.578c0.164,0.106,0.369,0.162,0.591,0.162c0.416,0,0.847-0.191,1.124-0.498
		c0.155-0.173,0.31-0.354,0.463-0.537l0.319-0.374c0.46-0.551,0.927-1.103,1.397-1.658l1.714-2.028
		c0.381-0.457,0.764-0.914,1.161-1.374l0.491-0.596c0.354-0.377,0.254-0.797,0.101-0.988c-0.266-0.337-0.716-0.429-1.018-0.21
		c-0.33,0.249-0.631,0.535-0.897,0.787c-0.482,0.447-0.969,0.885-1.46,1.323l-0.57,0.525c-0.344,0.316-0.689,0.634-1.039,0.949
		l-1.668,1.52l-1.926-2.025c-0.16-0.128-0.33-0.19-0.539-0.19l-0.062,0.002c-0.152,0.024-0.318,0.098-0.456,0.206
		C10.303,26.711,10.208,26.924,10.208,27.153"/>
	<path style="clip-path:url(#SVGID_2_);fill:#FFFFFF;" d="M15.224,35.083c-2.751,0-4.995,2.244-4.995,4.995
		c0,2.76,2.244,4.995,4.995,4.995c2.76,0,4.995-2.235,4.995-4.995C20.219,37.326,17.984,35.083,15.224,35.083 M15.224,43.381
		c-1.825,0-3.303-1.478-3.303-3.303s1.478-3.303,3.303-3.303c1.825,0,3.303,1.478,3.303,3.303S17.049,43.381,15.224,43.381"/>
	<polygon style="clip-path:url(#SVGID_2_);fill:#FFFFFF;" points="43.789,51.912 35.341,51.912 35.341,51.911 23.631,51.911 
		23.631,54.913 35.341,54.913 35.341,54.911 43.789,54.911 	"/>
	<path style="clip-path:url(#SVGID_2_);fill:#FFFFFF;" d="M15.224,48.417c-2.751,0-4.995,2.244-4.995,4.995
		c0,2.76,2.244,4.995,4.995,4.995c2.76,0,4.995-2.235,4.995-4.995C20.219,50.66,17.984,48.417,15.224,48.417 M15.224,56.715
		c-1.825,0-3.303-1.478-3.303-3.303s1.478-3.303,3.303-3.303c1.825,0,3.303,1.478,3.303,3.303S17.049,56.715,15.224,56.715"/>
	<path style="clip-path:url(#SVGID_2_);fill:#FFFFFF;" d="M43.331,8.407h-2.395v1.984h2.395c4.787,0,8.683,3.895,8.683,8.683V58.08
		c0,4.788-3.896,8.683-8.683,8.683H10.667c-4.787,0-8.682-3.895-8.682-8.683V19.074c0-4.788,3.895-8.683,8.682-8.683h2.394V8.407
		h-2.394C4.786,8.407,0,13.192,0,19.074V58.08c0,5.882,4.786,10.667,10.667,10.667h32.665c5.882,0,10.667-4.785,10.667-10.667
		V19.074C53.998,13.192,49.213,8.407,43.331,8.407"/>
</g>
</svg>
