<?xml version="1.0" encoding="utf-8"?>
<!-- Generator: Adobe Illustrator 16.0.0, SVG Export Plug-In . SVG Version: 6.00 Build 0)  -->
<!DOCTYPE svg PUBLIC "-//W3C//DTD SVG 1.1//EN" "http://www.w3.org/Graphics/SVG/1.1/DTD/svg11.dtd">
<svg version="1.1" id="Layer_1" xmlns="http://www.w3.org/2000/svg" xmlns:xlink="http://www.w3.org/1999/xlink" x="0px" y="0px"
	 width="98.244px" height="68.8px" viewBox="0 0 98.244 68.8" style="enable-background:new 0 0 98.244 68.8;" xml:space="preserve"
	>
<g>
	<defs>
		<rect id="SVGID_1_" width="98.244" height="68.8"/>
	</defs>
	<clipPath id="SVGID_2_">
		<use xlink:href="#SVGID_1_"  style="overflow:visible;"/>
	</clipPath>
	<path style="clip-path:url(#SVGID_2_);fill:#FFFFFF;" d="M0,62.5V6.1C0,2.8,2.7,0,6.1,0h72.6c3.3,0,6.1,2.7,6.1,6.1v3.8
		c0,1-0.8,1.8-1.8,1.8s-1.8-0.8-1.8-1.8V6.1c0-1.4-1.2-2.6-2.601-2.6H6.1c-1.4,0-2.6,1.2-2.6,2.6v10.2h70.6c1,0,1.801,0.8,1.801,1.8
		S75.1,19.9,74.1,19.9H3.5v42.7C3.5,64,4.7,65.2,6.1,65.2h31.5c1,0,1.8,0.8,1.8,1.8s-0.8,1.8-1.8,1.8H6.1C2.7,68.5,0,65.8,0,62.5
		 M8.6,8.7C8.3,9,8.1,9.5,8.1,9.9s0.2,0.9,0.5,1.2c0.3,0.3,0.8,0.5,1.2,0.5c0.4,0,0.9-0.2,1.2-0.5c0.3-0.3,0.5-0.8,0.5-1.2
		S11.3,9,11,8.7C10.4,8,9.3,8,8.6,8.7 M16.7,8.7c-0.3,0.3-0.5,0.8-0.5,1.2s0.2,0.9,0.5,1.2c0.3,0.3,0.8,0.5,1.2,0.5
		c0.5,0,0.9-0.2,1.2-0.5c0.3-0.3,0.5-0.8,0.5-1.2S19.4,9,19.1,8.7C18.6,8,17.4,8,16.7,8.7 M24.9,8.7c-0.3,0.3-0.5,0.8-0.5,1.2
		s0.2,0.9,0.5,1.2c0.3,0.3,0.8,0.5,1.2,0.5s0.9-0.2,1.2-0.5c0.3-0.3,0.5-0.8,0.5-1.2S27.6,9,27.3,8.7C26.7,8,25.5,8,24.9,8.7
		 M59.4,42C67.3,34.1,80.6,20.8,85,16.4c0.8-0.8,1.8-1.2,2.9-1H88.1c0.601,0.1,1.4,0.2,2.101,0.5c3.399,1.4,5.899,3.8,7.399,7.3
		c0.301,0.6,0.4,1.2,0.5,1.7c0,0.2,0.101,0.4,0.101,0.6c0,0.2,0.1,0.4,0,0.6c-0.101,1-0.5,1.8-1.101,2.4
		C89.3,36.2,67.9,57.6,60.2,65.3c-0.5,0.5-1.2,0.9-1.9,1c-2.7,0.6-5.399,1.1-8,1.7l-2,0.399c-0.2,0-0.4,0.101-0.6,0.101
		c-0.8,0-1.6-0.4-2.1-1c-0.5-0.601-0.7-1.5-0.5-2.4l0.3-1.6c0.6-2.8,1.2-5.7,1.8-8.5c0.1-0.601,0.5-1.3,1-1.8
		c1.7-1.7,3.399-3.4,5.1-5.2L59.4,42z M84.1,22.2l7.101,7.1c1.3-1.3,2.399-2.4,3.399-3.4l0.101-0.1c0-0.1,0-0.2-0.101-0.3
		c-0.1-0.4-0.199-0.8-0.3-1c-1.1-2.6-3-4.4-5.5-5.4c-0.3-0.1-0.7-0.2-1.2-0.2h-0.1C86.6,19.7,85.5,20.8,84.1,22.2 M61.9,44.399
		l-6.2,6.2C54,52.3,52.3,54,50.6,55.7c-0.699,2.899-1.3,5.699-1.8,8.5l-0.1,0.5l0.899-0.2c2.7-0.601,5.4-1.101,8-1.7
		c0.101,0,0.101,0,0.2-0.1C64,56.399,79.2,41.3,88.9,31.6L81.8,24.5C75.7,30.6,67.4,38.899,61.9,44.399 M63.2,26.1H11.9
		c-1,0-1.8,0.8-1.8,1.8s0.8,1.8,1.8,1.8h51.3c1,0,1.8-0.8,1.8-1.8S64.2,26.1,63.2,26.1 M11.9,39.3h39.2c1,0,1.801-0.8,1.801-1.8
		S52.1,35.7,51.1,35.7H11.9c-1,0-1.8,0.8-1.8,1.8S11,39.3,11.9,39.3 M11.9,49.1h30.7c1,0,1.8-0.8,1.8-1.8s-0.8-1.8-1.8-1.8H11.9
		c-1,0-1.8,0.8-1.8,1.8S11,49.1,11.9,49.1 M11.9,58.8h26c1,0,1.8-0.8,1.8-1.8s-0.8-1.7-1.7-1.7H12c-1,0-1.8,0.8-1.8,1.8
		S11,58.8,11.9,58.8"/>
</g>
</svg>
