<svg xmlns="http://www.w3.org/2000/svg" xmlns:xlink="http://www.w3.org/1999/xlink" width="256" height="256" viewBox="0 0 256 256"><defs><path id="a" d="M36 0h182.87v256H36z"/></defs><clipPath id="b"><use xlink:href="#a" overflow="visible"/></clipPath><path d="M128.31 0v.018a22.857 22.857 0 0 0-14.648 4.572c-7.148 5.384-10.269 14.349-8.532 22.823H86.285a4.575 4.575 0 0 0-4.572 4.572v4.572H40.567a4.575 4.575 0 0 0-4.572 4.572V251.43a4.572 4.572 0 0 0 4.572 4.571h173.73a4.574 4.574 0 0 0 4.572-4.571V41.128a4.578 4.578 0 0 0-4.572-4.572h-41.146v-4.572a4.578 4.578 0 0 0-4.571-4.572h-18.788c1.6-7.844-.99-16.211-7.25-21.733A22.788 22.788 0 0 0 128.31 0m-.339 9.125a13.711 13.711 0 0 1 8.536 3.411 13.689 13.689 0 0 1 2.821 17.108 4.563 4.563 0 0 0 .911 5.657c0 .009.009.022.019.022.08.063.151.125.231.179.026.031.054.058.089.094.055.036.125.081.18.121.115.081.231.161.356.237a.256.256 0 0 1 .089.036 4.662 4.662 0 0 0 2.232.567h20.573v3.822a4.247 4.247 0 0 0 0 1.5v16.787a4.247 4.247 0 0 0 0 1.5v3.822H90.856v-3.857a4.234 4.234 0 0 0 0-1.464V41.842a4.234 4.234 0 0 0 0-1.464v-3.822h20.573c2.527.036 4.612-1.973 4.648-4.5a4.594 4.594 0 0 0-.679-2.469 4.426 4.426 0 0 0-.357-.848 13.682 13.682 0 0 1 4.144-16.841 13.632 13.632 0 0 1 8.786-2.773M45.139 45.7h36.574v9.144H58.854a4.575 4.575 0 0 0-4.572 4.572v173.727a4.572 4.572 0 0 0 4.572 4.571H196.01a4.574 4.574 0 0 0 4.572-4.571V59.415a4.578 4.578 0 0 0-4.572-4.572h-22.858V45.7h36.574v201.157H45.139V45.7zm18.287 18.287h18.287v4.572a4.574 4.574 0 0 0 4.572 4.571h82.296a4.577 4.577 0 0 0 4.571-4.571v-4.572h18.287V228.57H63.426V63.987zm41.24 27.43a4.636 4.636 0 0 0-3.147 1.371l-15.14 15.042-5.96-5.916c-1.759-1.809-4.657-1.866-6.465-.107-1.822 1.754-1.875 4.652-.121 6.46a.874.874 0 0 0 .138.129l9.179 9.125a4.574 4.574 0 0 0 6.447 0l18.349-18.251a4.567 4.567 0 0 0-3.28-7.853m17.8 0a4.57 4.57 0 0 0-4.331 4.799 4.57 4.57 0 0 0 4.799 4.344h27.431a4.572 4.572 0 0 0 .125-9.143h-27.556a4.06 4.06 0 0 0-.468 0m.112 18.287c-2.522.129-4.474 2.277-4.344 4.799a4.581 4.581 0 0 0 4.809 4.344h54.504a4.569 4.569 0 0 0 4.634-4.509c.045-2.522-1.982-4.599-4.5-4.634h-54.638a4.007 4.007 0 0 0-.465 0m-17.912 27.431a4.595 4.595 0 0 0-3.147 1.375l-15.14 15.037-5.96-5.911c-1.759-1.813-4.657-1.866-6.465-.116a4.567 4.567 0 0 0-.121 6.465c.044.044.089.089.138.134l9.179 9.125a4.58 4.58 0 0 0 6.447 0l18.349-18.251a4.567 4.567 0 0 0 .112-6.465 4.556 4.556 0 0 0-3.392-1.393m17.8 0a4.568 4.568 0 0 0-4.331 4.804 4.574 4.574 0 0 0 4.799 4.34h27.431a4.57 4.57 0 0 0 4.635-4.51 4.575 4.575 0 0 0-4.51-4.634h-27.556a4.06 4.06 0 0 0-.468 0m.112 18.287a4.578 4.578 0 0 0-4.344 4.804 4.586 4.586 0 0 0 4.809 4.34h54.504a4.57 4.57 0 0 0 4.634-4.51c.045-2.518-1.982-4.599-4.5-4.634h-54.638a4.007 4.007 0 0 0-.465 0m-17.912 27.43a4.6 4.6 0 0 0-3.147 1.376l-15.14 15.036-5.96-5.911c-1.759-1.813-4.657-1.866-6.465-.116a4.568 4.568 0 0 0 .017 6.599l9.179 9.126a4.581 4.581 0 0 0 6.447 0l18.349-18.251a4.567 4.567 0 0 0 .112-6.465 4.56 4.56 0 0 0-3.392-1.394m17.8 0a4.57 4.57 0 0 0-4.331 4.805 4.574 4.574 0 0 0 4.799 4.339h27.431a4.57 4.57 0 0 0 4.635-4.509 4.576 4.576 0 0 0-4.51-4.635h-27.556a4.06 4.06 0 0 0-.468 0m.112 18.287a4.58 4.58 0 0 0-4.344 4.805 4.585 4.585 0 0 0 4.809 4.339h54.504a4.569 4.569 0 0 0 4.634-4.509c.045-2.519-1.982-4.599-4.5-4.635h-54.638a4.007 4.007 0 0 0-.465 0" clip-path="url(#b)" fill="#40c3f7"/></svg>