<svg xmlns="http://www.w3.org/2000/svg" xmlns:xlink="http://www.w3.org/1999/xlink" width="256" height="256" viewBox="0 0 256 256"><defs><path id="a" d="M0 4h255.74v247.545H0z"/></defs><clipPath id="b"><use xlink:href="#a" overflow="visible"/></clipPath><path d="M127.809 4.008v.063h-.08a2.788 2.788 0 0 0-.608.082.755.755 0 0 0-.19 0 .153.153 0 0 0-.085 0c-.098.03-.191.063-.291.101h-.089c-.054.028-.102.059-.155.083l-.202.093-60.763 26.097a4.012 4.012 0 0 0-3.275 3.586.376.376 0 0 1-.015.094 4.316 4.316 0 0 0 0 .771v76.758L3.411 136.953a3.978 3.978 0 0 0-2.636 1.731c-.023.032-.046.063-.066.095H.678a3.974 3.974 0 0 0-.573 3.11v79.043c0 .092 0 .2.016.295a3.997 3.997 0 0 0 2.46 3.368l61.058 26.249c.686.464 1.5.717 2.339.7a4.087 4.087 0 0 0 2.339-.687l59.545-25.59 59.548 25.576a4.052 4.052 0 0 0 2.34.7 4.033 4.033 0 0 0 2.331-.687l61.078-26.246a3.976 3.976 0 0 0 2.47-3.96v-78.693a3.902 3.902 0 0 0-.67-3.242 3.933 3.933 0 0 0-2.597-1.701l-58.543-25.169V34.948a4.154 4.154 0 0 0-.014-.818 4.01 4.01 0 0 0-3.277-3.587L129.726 4.397a3.993 3.993 0 0 0-1.31-.39h-.218a3.363 3.363 0 0 0-.389.001m.122 8.425l9.608 4.124-51.807 22.25-9.574-4.109 51.773-22.265zm19.714 8.457l12.381 5.318-53.193 22.876c-1.93.749-2.987 2.838-2.417 4.828v23.431l-3.275-4.944a4.008 4.008 0 0 0-5.119-1.356l-4.796 2.417V45.154l56.419-24.264zm22.479 9.676l9.599 4.117-51.792 22.27-9.605-4.125 51.798-22.262zM70.041 40.757l13.201 5.66v33.521a3.98 3.98 0 0 0 3.984 3.993c.621 0 1.237-.141 1.793-.421l7.428-3.751 8.39 12.647a3.99 3.99 0 0 0 5.353 1.801 3.983 3.983 0 0 0 2.165-2.948c.008-.03.008-.054.014-.077.016-.117.023-.227.032-.344v-.085a3.17 3.17 0 0 0 0-.39v-31.43l11.535 4.976v71.144l-53.895-23.159V40.757zm115.796 0v71.105l-53.913 23.174V63.939l53.913-23.182zM65.978 118.864l9.606 4.125-51.813 22.277-9.591-4.132 51.798-22.27zm123.85 0l9.528 4.094-51.806 22.269-9.529-4.093 51.807-22.27zm-104.13 8.445l12.37 5.326-53.194 22.86a4.006 4.006 0 0 0-2.401 3.994v24.28l-3.275-4.951a3.998 3.998 0 0 0-5.119-1.35l-4.815 2.418v-28.328l56.434-24.249zm123.781 0l12.38 5.326-53.209 22.86a3.978 3.978 0 0 0-2.418 3.899v24.359l-3.274-4.935a3.992 3.992 0 0 0-5.114-1.35l-4.802 2.418v-28.328l56.437-24.249zm-101.302 9.661l9.603 4.132-51.787 22.27-9.599-4.132 51.783-22.27zm123.773 0l9.605 4.132-51.796 22.27-9.601-4.132 51.792-22.27zM8.089 147.169l13.189 5.675v33.514a3.988 3.988 0 0 0 4 3.978c.624 0 1.232-.14 1.789-.423l7.436-3.725 8.62 13.021a4.007 4.007 0 0 0 5.536 1.146 4.013 4.013 0 0 0 1.797-3.361v-31.61L62 170.343V241.5L8.089 218.328v-71.159zm115.785 0v71.143l-53.888 23.175v-71.16l53.888-23.158zm7.98 0l13.202 5.675v33.514a3.99 3.99 0 0 0 4 3.978c.624 0 1.231-.14 1.777-.423l7.429-3.725 8.422 12.693a3.99 3.99 0 0 0 5.39 1.685 3.986 3.986 0 0 0 2.018-2.56c.017-.075.047-.153.063-.233.007-.038.017-.078.017-.108a3.733 3.733 0 0 0 .045-.811v-31.438l11.542 4.959v71.158l-53.904-23.172v-71.192zm115.792 0v71.159L193.744 241.5v-71.157l53.902-23.174zm-27.175 49.777c-.497.024-.98.142-1.441.345l-15.432 6.626a3.997 3.997 0 1 0 3.151 7.347l15.438-6.646a3.995 3.995 0 0 0 2.146-5.223 4.005 4.005 0 0 0-3.862-2.449m10.7 11.977v.017a3.77 3.77 0 0 0-1.437.328l-26.104 10.83a4.01 4.01 0 0 0-2.194 5.223 4.013 4.013 0 0 0 5.218 2.198c.017-.005.033-.014.048-.021l26.104-10.887a3.989 3.989 0 0 0 2.192-5.207 3.988 3.988 0 0 0-3.827-2.481" clip-path="url(#b)" fill="#40c3f7"/></svg>