<svg xmlns="http://www.w3.org/2000/svg" xmlns:xlink="http://www.w3.org/1999/xlink" width="256" height="256" viewBox="0 0 256 256"><defs><path id="a" d="M22.779 0h208.366v256H22.779z"/></defs><clipPath id="b"><use xlink:href="#a" overflow="visible"/></clipPath><path d="M182.245 105.05c0 13.288-4.783 26.044-13.289 35.878-3.454 3.985-9.301 4.251-13.022 1.061-3.986-3.454-4.251-9.301-1.062-13.02 5.58-6.644 8.77-15.149 8.77-23.918 0-20.198-16.478-36.675-36.674-36.675-20.198 0-36.675 16.478-36.675 36.675 0 20.196 16.478 36.674 36.675 36.674 5.048 0 9.301 4.251 9.301 9.302s-4.253 9.302-9.301 9.302c-30.562 0-55.278-24.715-55.278-55.277s24.716-55.278 55.278-55.278c30.562-.003 55.277 24.714 55.277 55.276m46.242 22.057c-1.596 6.909-3.986 13.82-6.911 20.464-10.631 24.979-33.483 63.25-83.446 104.442-3.189 2.658-7.177 3.986-11.163 3.986-3.986 0-7.972-1.328-11.162-3.986-49.697-41.192-72.818-79.728-83.448-104.442-2.924-6.644-5.315-13.555-6.91-20.464-.532-1.861-.532-2.923-.797-3.455-1.86-9.834-2.393-19.667-1.329-29.766C28.37 42.063 71.157 1.933 123.245.074c28.437-1.064 55.544 9.301 76.009 29.233 20.461 19.666 31.891 46.242 31.891 74.943 0 6.644-.532 13.289-1.861 19.667-.266.799-.532 1.861-.797 3.19m-15.945-23.121c0-23.387-9.301-45.179-26.046-61.39-16.742-16.211-39.064-24.716-62.452-23.917-42.788 1.593-77.868 34.548-82.119 77.07-.798 8.237-.532 16.476 1.063 24.449v.266c0 .266.266 1.063.531 2.126 1.329 5.847 3.189 11.694 5.847 17.01v.265c9.567 22.856 31.094 58.201 77.334 97.002 46.508-38.801 67.769-74.146 77.337-97.002v-.265c2.391-5.315 4.519-11.163 5.848-17.01.265-1.329.529-2.126.529-2.392v-.266c1.596-5.05 2.128-10.631 2.128-15.946" clip-path="url(#b)"/></svg>