<?xml version="1.0" encoding="utf-8"?>
<!-- Generator: Adobe Illustrator 16.0.0, SVG Export Plug-In . SVG Version: 6.00 Build 0)  -->
<!DOCTYPE svg PUBLIC "-//W3C//DTD SVG 1.1//EN" "http://www.w3.org/Graphics/SVG/1.1/DTD/svg11.dtd">
<svg version="1.1" id="Layer_1" xmlns="http://www.w3.org/2000/svg" xmlns:xlink="http://www.w3.org/1999/xlink" x="0px" y="0px"
	 width="256px" height="256px" viewBox="0 0 256 256" style="enable-background:new 0 0 256 256;" xml:space="preserve">
<g>
	<defs>
		<rect id="SVGID_1_" y="33" width="255.56" height="187.359"/>
	</defs>
	<clipPath id="SVGID_2_">
		<use xlink:href="#SVGID_1_"  style="overflow:visible;"/>
	</clipPath>
	<path style="clip-path:url(#SVGID_2_);fill:#40c3f7;" d="M229.947,33c-0.283,0.008-0.574,0.042-0.848,0.1H124.895
		c-1.954-0.008-3.658,1.33-4.131,3.226L93.813,146.938V37.339c0.025-2.348-1.854-4.281-4.206-4.306c-0.042,0-0.075,0-0.117,0
		C87.146,33.066,85.275,35,85.3,37.339v123.864c-3.001,0.434-5.861,1.289-8.513,2.562v-49.812c0-2.345-1.904-4.256-4.256-4.256
		H12.943c-2.353,0-4.256,1.912-4.256,4.256v59.587c0,2.353,1.904,4.257,4.256,4.257h49.82c-1.28,2.644-2.128,5.512-2.569,8.513
		H4.306c-2.344-0.033-4.273,1.845-4.306,4.197c-0.033,2.345,1.846,4.281,4.207,4.314c0.033,0,0.066,0,0.1,0h55.889
		c2.095,14.391,14.415,25.538,29.362,25.538c14.947,0,27.267-11.147,29.361-25.538h77.478c2.095,14.391,14.415,25.538,29.362,25.538
		c16.401,0,29.794-13.393,29.794-29.794c0-13.426-9.028-24.698-21.282-28.397V38.736c0.773-2.224-0.398-4.647-2.618-5.416
		c-0.017-0.008-0.033-0.017-0.059-0.025c-0.033-0.008-0.058-0.017-0.083-0.033c-0.024,0-0.041-0.008-0.066-0.008
		C230.97,33.075,230.454,32.987,229.947,33 M128.262,41.596h76.214v100.588l-8.513,9.926v-38.157h-8.512v38.306h-38.307v8.513
		h39.387l-7.299,8.513h-70.918c-1.779-1.754-3.84-3.2-6.035-4.456l35.97-35.862l3.275,3.275c1.663,1.663,4.356,1.671,6.027,0.009
		c1.671-1.663,1.671-4.365,0.008-6.027l-12.719-12.719c-0.807-0.831-1.912-1.305-3.075-1.297c-2.354,0-4.257,1.912-4.257,4.256
		c0,1.147,0.466,2.261,1.297,3.059l3.425,3.425l-34.117,34.017L128.262,41.596z M212.988,41.596h12.77v119.176
		c-14.947,0-27.268,11.147-29.362,25.538h-77.478c-0.44-3.001-1.289-5.869-2.568-8.513h68.807l27.832-32.488V41.596z M17.2,118.208
		h8.513v21.215c0,2.344,1.903,4.256,4.265,4.256c0.64,0,1.28-0.158,1.854-0.432l4.256-2.078c0.008,0,0.025,0,0.042,0l6.609-3.309
		l6.592,3.309c0.017,0,0.033,0,0.05,0l4.24,2.078c2.111,1.039,4.672,0.166,5.711-1.945c0.291-0.591,0.433-1.223,0.433-1.879v-21.215
		h8.496v51.142c-0.266-0.05-0.523-0.066-0.806-0.066H17.2V118.208z M34.208,118.208H51.25v14.381l-6.592-3.309
		c-1.206-0.598-2.619-0.598-3.824,0l-6.625,3.309V118.208z M89.557,169.284c11.813,0,21.281,9.477,21.281,21.281
		s-9.469,21.281-21.281,21.281c-11.813,0-21.282-9.477-21.282-21.281S77.744,169.284,89.557,169.284 M225.758,169.284
		c11.804,0,21.281,9.477,21.281,21.281s-9.478,21.281-21.281,21.281c-11.598,0-20.883-9.161-21.216-20.666
		c0.059-0.399,0.059-0.814,0-1.214C204.866,178.453,214.16,169.284,225.758,169.284 M89.557,177.797
		c-7.008,0-12.769,5.769-12.769,12.769s5.761,12.769,12.769,12.769c7.008,0,12.769-5.769,12.769-12.769
		S96.564,177.797,89.557,177.797 M225.758,177.797c-7.009,0-12.786,5.769-12.786,12.769s5.777,12.769,12.786,12.769
		c7.008,0,12.769-5.769,12.769-12.769S232.766,177.797,225.758,177.797 M89.557,186.31c2.402,0,4.256,1.854,4.256,4.256
		s-1.854,4.256-4.256,4.256c-2.403,0-4.256-1.854-4.256-4.256S87.154,186.31,89.557,186.31 M225.758,186.31
		c2.402,0,4.256,1.854,4.256,4.256s-1.854,4.256-4.256,4.256c-2.403,0-4.257-1.854-4.257-4.256S223.354,186.31,225.758,186.31"/>
</g>
</svg>
