<svg xmlns="http://www.w3.org/2000/svg" xmlns:xlink="http://www.w3.org/1999/xlink" width="256" height="256" viewBox="0 0 256 256"><defs><path id="a" d="M0 33h255.56v187.359H0z"/></defs><clipPath id="b"><use xlink:href="#a" overflow="visible"/></clipPath><path d="M229.947 33a4.802 4.802 0 0 0-.848.1H124.895a4.249 4.249 0 0 0-4.131 3.226L93.813 146.938V37.339a4.257 4.257 0 0 0-4.206-4.306h-.117a4.26 4.26 0 0 0-4.19 4.306v123.864c-3.001.434-5.861 1.289-8.513 2.562v-49.812a4.259 4.259 0 0 0-4.256-4.256H12.943a4.259 4.259 0 0 0-4.256 4.256v59.587a4.254 4.254 0 0 0 4.256 4.257h49.82c-1.28 2.644-2.128 5.512-2.569 8.513H4.306A4.252 4.252 0 0 0 0 190.507a4.26 4.26 0 0 0 4.207 4.314h55.989c2.095 14.391 14.415 25.538 29.362 25.538s27.267-11.147 29.361-25.538h77.478c2.095 14.391 14.415 25.538 29.362 25.538 16.401 0 29.794-13.393 29.794-29.794 0-13.426-9.028-24.698-21.282-28.397V38.736a4.249 4.249 0 0 0-2.618-5.416c-.017-.008-.033-.017-.059-.025a.258.258 0 0 1-.083-.033c-.024 0-.041-.008-.066-.008a3.99 3.99 0 0 0-1.498-.254m-101.685 8.596h76.214v100.588l-8.513 9.926v-38.157h-8.512v38.306h-38.307v8.513h39.387l-7.299 8.513h-70.918c-1.779-1.754-3.84-3.2-6.035-4.456l35.97-35.862 3.275 3.275a4.265 4.265 0 0 0 6.027.009 4.257 4.257 0 0 0 .008-6.027l-12.719-12.719a4.244 4.244 0 0 0-3.075-1.297 4.259 4.259 0 0 0-4.257 4.256c0 1.147.466 2.261 1.297 3.059l3.425 3.425-34.117 34.017 28.149-115.369zm84.726 0h12.77v119.176c-14.947 0-27.268 11.147-29.362 25.538h-77.478c-.44-3.001-1.289-5.869-2.568-8.513h68.807l27.832-32.488V41.596zM17.2 118.208h8.513v21.215a4.26 4.26 0 0 0 4.265 4.256c.64 0 1.28-.158 1.854-.432l4.256-2.078h.042l6.609-3.309 6.592 3.309h.05l4.24 2.078a4.27 4.27 0 0 0 5.711-1.945 4.213 4.213 0 0 0 .433-1.879v-21.215h8.496v51.142a4.265 4.265 0 0 0-.806-.066H17.2v-51.076zm17.008 0H51.25v14.381l-6.592-3.309a4.3 4.3 0 0 0-3.824 0l-6.625 3.309v-14.381zm55.349 51.076c11.813 0 21.281 9.477 21.281 21.281s-9.469 21.281-21.281 21.281c-11.813 0-21.282-9.477-21.282-21.281s9.469-21.281 21.282-21.281m136.201 0c11.804 0 21.281 9.477 21.281 21.281s-9.478 21.281-21.281 21.281c-11.598 0-20.883-9.161-21.216-20.666a4.185 4.185 0 0 0 0-1.214c.324-11.513 9.618-20.682 21.216-20.682m-136.201 8.513c-7.008 0-12.769 5.769-12.769 12.769s5.761 12.769 12.769 12.769 12.769-5.769 12.769-12.769-5.762-12.769-12.769-12.769m136.201 0c-7.009 0-12.786 5.769-12.786 12.769s5.777 12.769 12.786 12.769c7.008 0 12.769-5.769 12.769-12.769s-5.761-12.769-12.769-12.769M89.557 186.31c2.402 0 4.256 1.854 4.256 4.256s-1.854 4.256-4.256 4.256c-2.403 0-4.256-1.854-4.256-4.256s1.853-4.256 4.256-4.256m136.201 0c2.402 0 4.256 1.854 4.256 4.256s-1.854 4.256-4.256 4.256c-2.403 0-4.257-1.854-4.257-4.256s1.853-4.256 4.257-4.256" clip-path="url(#b)" fill="#40c3f7"/></svg>