<?xml version="1.0" encoding="utf-8"?>
<!-- Generator: Adobe Illustrator 16.0.0, SVG Export Plug-In . SVG Version: 6.00 Build 0)  -->
<!DOCTYPE svg PUBLIC "-//W3C//DTD SVG 1.1//EN" "http://www.w3.org/Graphics/SVG/1.1/DTD/svg11.dtd">
<svg version="1.1" id="Layer_1" xmlns="http://www.w3.org/2000/svg" xmlns:xlink="http://www.w3.org/1999/xlink" x="0px" y="0px"
	 width="256px" height="256px" viewBox="0 0 256 256" style="enable-background:new 0 0 256 256;" xml:space="preserve">
<g>
	<defs>
		<rect id="SVGID_1_" x="0.05" y="5" width="255.95" height="245.158"/>
	</defs>
	<clipPath id="SVGID_2_">
		<use xlink:href="#SVGID_1_"  style="overflow:visible;"/>
	</clipPath>
	<path style="clip-path:url(#SVGID_2_);" d="M157.965,138.196c-7.798-7.798-18.661-12.254-29.801-12.254
		s-22.002,4.457-29.801,12.254l-10.025,10.029L15.925,99.762c-2.508-1.671-5.57-2.228-8.634-1.114
		c-2.785,0.835-5.014,3.064-6.128,6.126c-0.835,1.95-1.114,4.177-1.114,6.406V230.94c0,5.292,1.95,10.024,5.57,13.647
		c1.951,1.947,4.457,2.784,6.963,2.784c2.507,0,5.013-0.837,6.962-2.784l0.279-0.277l91.908-91.908
		c4.178-4.177,10.027-6.685,16.155-6.685c6.125,0,11.695,2.508,16.153,6.685l78.817,78.261H56.865c-5.292,0-9.748,4.454-9.748,9.747
		s4.456,9.748,9.748,9.748h179.917c5.292,0,10.024-2.23,13.647-5.57c3.34-3.623,5.57-8.355,5.57-13.647V110.902
		c0-3.063-0.838-6.405-2.23-9.19c-1.112-2.229-2.785-4.178-4.732-5.57l-98.593-82.996c-12.811-10.862-31.75-10.862-44.562,0
		L32.078,75.254c-4.178,3.341-4.735,9.748-1.114,13.646c3.341,4.178,9.748,4.734,13.646,1.114l74.084-62.106
		c5.57-4.735,13.646-4.735,19.216,0l82.438,69.348l10.305,8.634l-39.268,26.735c-4.457,3.065-5.57,9.192-2.508,13.647
		c1.95,2.785,5.012,4.178,8.077,4.178c1.95,0,3.898-0.556,5.57-1.67l33.979-23.117v91.352L157.965,138.196z M74.133,162.428
		l-54.31,54.31v-91.074L74.133,162.428z"/>
</g>
</svg>
