<svg xmlns="http://www.w3.org/2000/svg" xmlns:xlink="http://www.w3.org/1999/xlink" width="256" height="256" viewBox="0 0 256 256"><defs><path id="a" d="M.05 5H256v245.158H.05z"/></defs><clipPath id="b"><use xlink:href="#a" overflow="visible"/></clipPath><path d="M157.965 138.196c-7.798-7.798-18.661-12.254-29.801-12.254s-22.002 4.457-29.801 12.254l-10.025 10.029-72.413-48.463c-2.508-1.671-5.57-2.228-8.634-1.114-2.785.835-5.014 3.064-6.128 6.126-.835 1.95-1.114 4.177-1.114 6.406v119.76c0 5.292 1.95 10.024 5.57 13.647 1.951 1.947 4.457 2.784 6.963 2.784 2.507 0 5.013-.837 6.962-2.784l.279-.277 91.908-91.908a22.987 22.987 0 0 1 16.155-6.685c6.125 0 11.695 2.508 16.153 6.685l78.817 78.261H56.865c-5.292 0-9.748 4.454-9.748 9.747s4.456 9.748 9.748 9.748h179.917c5.292 0 10.024-2.23 13.647-5.57 3.34-3.623 5.57-8.355 5.57-13.647V110.902c0-3.063-.838-6.405-2.23-9.19a15.331 15.331 0 0 0-4.732-5.57l-98.593-82.996c-12.811-10.862-31.75-10.862-44.562 0L32.078 75.254c-4.178 3.341-4.735 9.748-1.114 13.646 3.341 4.178 9.748 4.734 13.646 1.114l74.084-62.106a14.773 14.773 0 0 1 19.216 0l82.438 69.348 10.305 8.634-39.268 26.735c-4.457 3.065-5.57 9.192-2.508 13.647 1.95 2.785 5.012 4.178 8.077 4.178 1.95 0 3.898-.556 5.57-1.67l33.979-23.117v91.352l-78.538-78.819zm-83.832 24.232l-54.31 54.31v-91.074l54.31 36.764z" clip-path="url(#b)"/></svg>