<svg xmlns="http://www.w3.org/2000/svg" xmlns:xlink="http://www.w3.org/1999/xlink" width="256" height="256" viewBox="0 0 256 256"><defs><path id="a" d="M0 0h256v255.118H0z"/></defs><clipPath id="b"><use xlink:href="#a" overflow="visible"/></clipPath><path d="M246.796 179.241c12.269 12.269 12.269 30.027 0 42.943l-19.373 19.372c-7.75 7.751-17.112 12.27-28.091 13.24-1.937.321-3.876.321-5.812.321-14.852 0-28.091-4.196-37.131-7.75-24.862-9.04-47.461-22.923-72.002-43.264-29.706-24.863-52.951-54.568-69.419-88.471C8.835 102.396 1.406 84.96.113 65.265c-.965-15.822 4.2-28.738 14.854-38.746l.325-.323c3.229-2.906 6.458-6.134 9.686-9.363 2.258-2.584 4.843-4.843 7.423-7.427C45.642-3.186 63.076-3.186 75.99 9.729l30.674 30.674c6.136 5.811 9.686 13.238 9.686 20.987 0 8.072-3.229 15.498-9.686 21.956l-19.048 19.051c-4.519 4.52-11.626 4.52-16.144 0-4.519-4.522-4.519-11.624 0-16.145L90.52 67.201c1.939-1.936 2.907-3.874 2.907-5.812 0-1.938-1.614-3.875-2.907-5.166L59.525 25.227c-4.197-4.197-7.75-3.874-11.944.323-2.264 2.261-4.521 4.198-6.782 6.781-3.554 3.552-7.104 7.426-11.301 10.978-5.812 5.49-8.072 11.624-7.425 20.342.968 15.821 7.425 30.674 12.593 41.975 14.852 30.996 36.16 58.119 63.284 80.721 23.245 18.726 43.91 31.32 66.19 39.713 13.236 4.844 23.569 6.779 33.256 6.136 5.489-.646 10.008-2.585 14.205-6.457l19.051-19.051c4.844-5.165 2.262-8.719 0-11.301l-.321-.321c-3.229-3.229-6.457-6.458-9.687-10.012-1.939-1.614-3.554-3.55-5.489-5.489l-15.177-15.174c-4.521-4.521-7.425-4.521-11.946 0l-4.844 4.844c-4.843 4.519-9.04 9.04-13.562 13.883l-.321.322c-7.104 7.104-14.209 4.521-16.466 3.875-.325 0-.647-.322-.647-.322-10.01-4.199-19.05-9.686-30.348-18.404-10.98-9.04-20.344-18.084-28.738-27.445-4.2-4.843-3.55-11.946.968-15.822 4.843-4.197 11.947-3.551 15.819.969 7.429 8.717 15.822 16.789 25.831 24.861 7.428 5.811 13.887 10.332 20.344 13.239 3.551-3.875 7.425-7.429 10.977-10.979l4.843-4.844c13.24-13.236 30.674-13.236 43.913 0l15.174 15.177 5.167 5.164c3.549 3.229 7.103 6.781 10.654 10.332" clip-path="url(#b)"/></svg>