<?xml version="1.0" encoding="utf-8"?>
<!-- Generator: Adobe Illustrator 16.0.0, SVG Export Plug-In . SVG Version: 6.00 Build 0)  -->
<!DOCTYPE svg PUBLIC "-//W3C//DTD SVG 1.1//EN" "http://www.w3.org/Graphics/SVG/1.1/DTD/svg11.dtd">
<svg version="1.1" id="Layer_1" xmlns="http://www.w3.org/2000/svg" xmlns:xlink="http://www.w3.org/1999/xlink" x="0px" y="0px"
	 width="505.428px" height="111.262px" viewBox="0 0 505.428 111.262" enable-background="new 0 0 505.428 111.262"
	 xml:space="preserve">
<g>
	<defs>
		<rect id="SVGID_1_" width="505.428" height="111.262"/>
	</defs>
	<clipPath id="SVGID_2_">
		<use xlink:href="#SVGID_1_"  overflow="visible"/>
	</clipPath>
	<path clip-path="url(#SVGID_2_)" fill="#FFFFFF" d="M135.763,74.258h-6.501V37.005h15.281c2.611,0,4.839,0.142,6.623,0.42
		c1.931,0.302,3.526,0.921,4.742,1.842c1.261,0.957,2.168,2.312,2.698,4.028c0.493,1.599,0.733,3.605,0.733,6.132
		s-0.24,4.533-0.732,6.132c-0.532,1.722-1.444,3.071-2.71,4.01c-1.211,0.897-2.803,1.506-4.732,1.807
		c-1.783,0.279-4.011,0.42-6.622,0.42h-8.78V74.258z M135.763,56.104h8.888c1.646,0,3.059-0.053,4.197-0.157
		c0.957-0.086,1.72-0.319,2.268-0.694c0.496-0.339,0.86-0.878,1.113-1.647c0.297-0.907,0.447-2.258,0.447-4.016v-0.324
		c0-1.724-0.151-3.068-0.449-3.996c-0.256-0.791-0.626-1.349-1.129-1.706c-0.544-0.385-1.301-0.624-2.249-0.709
		c-1.139-0.104-2.552-0.157-4.198-0.157h-8.888V56.104z"/>
	<path clip-path="url(#SVGID_2_)" fill="#FFFFFF" d="M195.814,74.415c-0.25,0-0.494-0.008-0.733-0.025
		c-0.95-0.065-1.896-0.342-2.808-0.821c-0.863-0.45-1.757-1.126-2.654-2.003c-0.859-0.84-1.822-1.981-2.863-3.396l-4.68-6.374
		h-9.089v12.463h-6.501V37.005h15.281c2.611,0,4.839,0.142,6.622,0.42c1.931,0.302,3.527,0.921,4.743,1.841
		c1.26,0.958,2.168,2.312,2.698,4.029c0.493,1.598,0.733,3.604,0.733,6.132c0,1.988-0.145,3.694-0.432,5.069
		c-0.308,1.48-0.843,2.728-1.588,3.708c-0.763,1.002-1.772,1.783-2.998,2.321c-0.589,0.259-1.25,0.478-1.977,0.655l2.839,3.688
		c0.79,1.03,1.478,1.841,2.046,2.408c0.531,0.53,1.013,0.926,1.435,1.172c0.36,0.211,0.694,0.335,0.994,0.367
		c0.381,0.043,0.791,0.035,1.22-0.022l1.83-0.246l-1.152,5.552l-0.892,0.143C197.165,74.356,196.47,74.415,195.814,74.415
		 M172.987,56.104h8.888c1.642,0,3.047-0.06,4.178-0.181c0.956-0.102,1.72-0.35,2.269-0.738c0.504-0.357,0.873-0.915,1.128-1.707
		c0.299-0.927,0.45-2.289,0.45-4.05c0-1.833-0.152-3.243-0.452-4.191c-0.253-0.798-0.616-1.351-1.11-1.688
		c-0.546-0.374-1.309-0.608-2.265-0.694c-1.14-0.104-2.552-0.157-4.198-0.157h-8.888V56.104z"/>
	<path clip-path="url(#SVGID_2_)" fill="#FFFFFF" d="M225.09,74.852c-2.479,0-4.841-0.218-7.023-0.646
		c-2.308-0.453-4.353-1.397-6.078-2.806c-1.734-1.414-3.118-3.429-4.114-5.988c-0.972-2.497-1.465-5.806-1.465-9.834
		s0.493-7.337,1.465-9.835c0.996-2.559,2.38-4.574,4.114-5.989c1.726-1.407,3.77-2.351,6.078-2.805
		c2.182-0.428,4.544-0.645,7.023-0.645c2.478,0,4.841,0.217,7.023,0.645c2.307,0.454,4.352,1.398,6.078,2.805
		c1.734,1.416,3.119,3.431,4.114,5.989c0.972,2.498,1.465,5.806,1.465,9.835s-0.493,7.337-1.465,9.834
		c-0.995,2.559-2.38,4.573-4.114,5.988c-1.726,1.408-3.771,2.353-6.078,2.806C229.931,74.634,227.568,74.852,225.09,74.852
		 M225.09,41.942c-1.711,0-3.373,0.079-4.941,0.236c-1.385,0.139-2.562,0.591-3.597,1.383c-1.016,0.777-1.859,2.075-2.505,3.858
		c-0.682,1.879-1.028,4.623-1.028,8.159c0,2.386,0.164,4.414,0.487,6.027c0.314,1.574,0.742,2.867,1.27,3.843
		c0.499,0.924,1.09,1.641,1.758,2.133c0.691,0.512,1.461,0.886,2.291,1.112c0.893,0.243,1.86,0.393,2.875,0.441
		c2.154,0.104,4.5,0.106,6.726,0c1.014-0.049,1.981-0.198,2.874-0.441c0.834-0.228,1.618-0.604,2.329-1.12
		c0.682-0.492,1.279-1.208,1.774-2.124c0.529-0.976,0.956-2.27,1.271-3.843c0.323-1.618,0.487-3.646,0.487-6.028
		c0-3.531-0.353-6.273-1.051-8.149c-0.664-1.785-1.523-3.084-2.555-3.862c-1.056-0.796-2.235-1.25-3.606-1.389
		C228.399,42.021,226.764,41.942,225.09,41.942"/>
	<path clip-path="url(#SVGID_2_)" fill="#FFFFFF" d="M268.303,74.852c-1.282,0-2.665-0.066-4.108-0.194
		c-1.435-0.129-2.864-0.326-4.251-0.584c-1.375-0.256-2.684-0.544-3.891-0.856c-1.27-0.325-2.355-0.713-3.226-1.148l-1.199-0.602
		l0.63-1.184c0.288-0.541,0.56-1.047,0.813-1.516c0.262-0.485,0.568-1.005,0.913-1.543l0.584-0.909l1.002,0.401
		c0.52,0.207,1.209,0.451,2.053,0.727c0.836,0.272,1.834,0.534,2.967,0.772c1.143,0.243,2.431,0.455,3.83,0.63
		c1.376,0.173,2.846,0.259,4.37,0.259c1.49,0,2.835-0.035,3.994-0.104c1.018-0.061,1.879-0.268,2.559-0.615
		c0.591-0.303,1.037-0.771,1.362-1.435c0.358-0.732,0.541-1.854,0.541-3.334c0-1.129-0.155-1.753-0.285-2.079
		c-0.15-0.376-0.395-0.672-0.743-0.901c-0.441-0.288-1.075-0.525-1.885-0.705c-0.964-0.216-2.161-0.464-3.589-0.75
		c-3.03-0.577-5.636-1.097-7.729-1.541c-2.23-0.473-4.08-1.096-5.497-1.853c-1.548-0.827-2.694-1.961-3.41-3.368
		c-0.693-1.365-1.03-3.103-1.03-5.312c0-1.803,0.392-3.416,1.165-4.794c0.764-1.364,1.831-2.505,3.171-3.391
		c1.282-0.85,2.776-1.499,4.439-1.93c2.767-0.714,5.896-0.72,9.156-0.496c1.344,0.092,2.658,0.231,3.905,0.414
		c1.259,0.187,2.448,0.412,3.537,0.669c1.147,0.274,2.151,0.613,2.985,1.01l1.322,0.63l-3.112,4.997l-0.993-0.354
		c-0.467-0.167-1.101-0.356-1.886-0.56c-0.787-0.205-1.686-0.408-2.675-0.603c-0.966-0.189-2.003-0.347-3.078-0.47
		c-1.062-0.119-2.12-0.179-3.142-0.179c-2.963,0-5.2,0.407-6.649,1.211c-1.217,0.674-1.808,1.95-1.808,3.9
		c0,1.059,0.054,1.859,0.162,2.377c0.065,0.325,0.199,0.562,0.422,0.747c0.206,0.173,0.634,0.426,1.511,0.654
		c0.859,0.224,2.089,0.5,3.656,0.82c1.998,0.429,4.02,0.815,6.023,1.152c2.116,0.357,4.067,0.89,5.802,1.587h0.001
		c1.835,0.739,3.368,1.789,4.56,3.12c1.271,1.422,1.937,3.36,1.979,5.759c0,2.312-0.396,4.229-1.175,5.726
		c-0.789,1.518-1.909,2.732-3.331,3.611c-1.367,0.844-3.009,1.421-4.881,1.717C272.373,74.71,270.408,74.852,268.303,74.852"/>
	<path clip-path="url(#SVGID_2_)" fill="#FFFFFF" d="M299.444,74.258h-6.501V37.005h15.281c2.611,0,4.839,0.142,6.623,0.42
		c1.931,0.302,3.526,0.921,4.741,1.842h0.001c1.259,0.956,2.168,2.31,2.698,4.028c0.492,1.598,0.732,3.605,0.732,6.132
		s-0.24,4.534-0.731,6.131c-0.533,1.725-1.445,3.073-2.711,4.011c-1.211,0.897-2.803,1.506-4.731,1.807
		c-1.783,0.279-4.011,0.42-6.622,0.42h-8.78V74.258z M299.444,56.104h8.889c1.646,0,3.058-0.053,4.197-0.157
		c0.956-0.086,1.72-0.319,2.268-0.694c0.496-0.339,0.859-0.877,1.113-1.647c0.296-0.905,0.446-2.256,0.446-4.016v-0.324
		c0-1.726-0.151-3.07-0.449-3.995c-0.256-0.792-0.626-1.351-1.129-1.707c-0.544-0.385-1.301-0.624-2.248-0.709
		c-1.141-0.104-2.553-0.157-4.198-0.157h-8.889V56.104z"/>
	<path clip-path="url(#SVGID_2_)" fill="#FFFFFF" d="M348.686,74.959c-2.775,0-5.279-0.228-7.44-0.675
		c-2.303-0.477-4.284-1.439-5.89-2.865c-1.605-1.423-2.84-3.411-3.665-5.909c-0.796-2.407-1.199-5.585-1.199-9.447
		c0-4.008,0.432-7.324,1.282-9.858c0.877-2.61,2.141-4.683,3.756-6.16c1.618-1.477,3.559-2.488,5.765-3.005
		c2.085-0.489,4.409-0.736,6.907-0.736c2.684,0,5.106,0.267,7.198,0.795c2.209,0.558,4.104,1.584,5.63,3.049l0.001,0.001
		c1.519,1.46,2.687,3.45,3.47,5.915c0.757,2.386,1.141,5.46,1.141,9.136v2.711h-28.507c0.087,2.255,0.332,4.114,0.729,5.544
		c0.437,1.571,1.111,2.793,2.005,3.628c0.895,0.834,2.096,1.404,3.569,1.695c1.634,0.324,3.673,0.488,6.06,0.488
		c1.003,0,2.043-0.093,3.092-0.277c1.087-0.189,2.14-0.418,3.13-0.678c1.005-0.264,1.919-0.537,2.714-0.809
		c0.839-0.285,1.506-0.517,2.005-0.695l0.994-0.355l3.112,4.996l-1.32,0.632c-0.81,0.386-1.799,0.756-2.94,1.098
		c-1.112,0.334-2.322,0.634-3.595,0.891c-1.271,0.26-2.603,0.473-3.96,0.639C351.352,74.875,349.991,74.959,348.686,74.959
		 M337.239,52.165h21.609c-0.145-2.015-0.433-3.683-0.858-4.971c-0.484-1.47-1.146-2.602-1.968-3.363
		c-0.813-0.754-1.806-1.24-3.031-1.482c-1.366-0.27-2.979-0.407-4.79-0.407c-1.582,0-3.084,0.095-4.463,0.284
		c-1.225,0.169-2.27,0.59-3.192,1.286c-0.899,0.678-1.653,1.777-2.241,3.267C337.777,48.105,337.422,49.913,337.239,52.165"/>
	<path clip-path="url(#SVGID_2_)" fill="#FFFFFF" d="M404.059,74.415c-0.25,0-0.494-0.008-0.732-0.025
		c-0.95-0.065-1.896-0.342-2.809-0.821c-0.863-0.45-1.757-1.125-2.653-2.003c-0.861-0.842-1.824-1.983-2.864-3.396l-4.681-6.373
		h-9.088v12.463h-6.501V37.005h15.281c2.611,0,4.839,0.142,6.621,0.42c1.932,0.302,3.528,0.921,4.744,1.842
		c1.26,0.957,2.168,2.312,2.698,4.028c0.492,1.598,0.732,3.603,0.732,6.132c0,1.984-0.146,3.689-0.432,5.069
		c-0.31,1.482-0.844,2.73-1.59,3.709c-0.762,1-1.771,1.782-2.996,2.319c-0.589,0.26-1.25,0.479-1.979,0.656l2.84,3.688
		c0.79,1.029,1.479,1.841,2.047,2.408c0.53,0.53,1.013,0.926,1.435,1.172c0.36,0.211,0.694,0.335,0.993,0.367
		c0.382,0.043,0.792,0.034,1.22-0.022l1.83-0.246l-1.151,5.552l-0.893,0.143C405.41,74.356,404.715,74.415,404.059,74.415
		 M381.231,56.104h8.888c1.643,0,3.048-0.06,4.179-0.181c0.955-0.102,1.719-0.35,2.269-0.738c0.503-0.356,0.872-0.915,1.128-1.708
		c0.299-0.926,0.45-2.288,0.45-4.049c0-1.833-0.151-3.243-0.452-4.191c-0.254-0.798-0.616-1.351-1.11-1.688
		c-0.547-0.374-1.31-0.608-2.265-0.694c-1.14-0.104-2.552-0.157-4.198-0.157h-8.888V56.104z"/>
	<rect x="416.865" y="37.006" clip-path="url(#SVGID_2_)" fill="#FFFFFF" width="6.501" height="37.252"/>
	<polygon clip-path="url(#SVGID_2_)" fill="#FFFFFF" points="450.557,74.258 444.056,74.258 444.056,42.698 431.559,42.698 
		432.558,37.006 463.754,37.006 462.755,42.698 450.557,42.698 	"/>
	<path clip-path="url(#SVGID_2_)" fill="#FFFFFF" d="M489.886,74.258h-6.501V58.576c-2.19-3.163-4.405-6.36-6.646-9.59
		c-2.319-3.343-4.628-6.649-6.928-9.919l-1.45-2.061h7.848l0.392,0.567c1.189,1.731,2.38,3.49,3.569,5.276
		c1.185,1.775,2.367,3.523,3.551,5.243c0.734,1.067,1.501,2.249,2.275,3.51c0.33,0.538,0.646,1.051,0.945,1.543
		c0.286-0.475,0.595-0.981,0.926-1.518c0.825-1.338,1.669-2.607,2.507-3.773c1.131-1.698,2.337-3.442,3.56-5.149
		c1.211-1.693,2.423-3.42,3.6-5.132l0.39-0.567h7.506L489.886,58.59V74.258z"/>
	<path clip-path="url(#SVGID_2_)" fill="#FFFFFF" d="M61.428,32.378c0,1.922-1.558,3.48-3.48,3.48c-1.922,0-3.479-1.558-3.479-3.48
		c0-1.922,1.557-3.48,3.479-3.48C59.87,28.898,61.428,30.457,61.428,32.378"/>
	<path clip-path="url(#SVGID_2_)" fill="#FFFFFF" d="M79.07,106.658H12.336l-1.389-5.559l64.112-0.001l-2.455-3.6
		c-0.012-0.018-0.102-0.15-0.254-0.38l-0.001-0.001c-2.19-3.307-17.912-27.641-19.878-47.383c6.597,1.319,22.675,4.812,29.344,8.722
		l1.863,1.093l9.307-13.758L65.33,16.685l-12.278-1.536V0.001l-2.94,0.849c-0.574,0.165-14.19,4.203-25.51,16.86
		C14.458,29.051,4.459,49.63,13.355,83.739H7.265C2.102,60.346,4.506,39.446,14.248,23.2c5.24-8.735,11.36-14.055,14.646-16.512
		V1.117C27.805,1.758,18.309,7.6,10.443,20.595C2.954,32.967-4.384,54.455,3.188,86.569l0.418,1.774h15.819l-0.84-2.937
		c-7.751-27.082-4.619-48.774,9.311-64.472C35.313,12.573,44.005,8.201,48.448,6.36v12.853l14.677,1.837l23.971,25.228l-4.868,7.195
		c-10.15-4.883-30.901-8.659-31.837-8.828l-2.789-0.503l0.08,2.833c0.518,18.434,13.381,40.87,18.787,49.519H5.051l3.69,14.769
		h73.572L79.07,106.658z"/>
</g>
</svg>
