<?xml version="1.0" encoding="utf-8"?>
<!-- Generator: Adobe Illustrator 16.0.0, SVG Export Plug-In . SVG Version: 6.00 Build 0)  -->
<!DOCTYPE svg PUBLIC "-//W3C//DTD SVG 1.1//EN" "http://www.w3.org/Graphics/SVG/1.1/DTD/svg11.dtd">
<svg version="1.1" id="Layer_1" xmlns="http://www.w3.org/2000/svg" xmlns:xlink="http://www.w3.org/1999/xlink" x="0px" y="0px"
	 width="256px" height="256px" viewBox="0 0 256 256" style="enable-background:new 0 0 256 256;" xml:space="preserve">
<g>
	<defs>
		<rect id="SVGID_1_" x="21" width="213.945" height="256"/>
	</defs>
	<clipPath id="SVGID_2_">
		<use xlink:href="#SVGID_1_"  style="overflow:visible;"/>
	</clipPath>
	<path style="clip-path:url(#SVGID_2_);" d="M162.338,74.5c0,4.422-3.587,8.006-8.009,8.006s-8.003-3.584-8.003-8.006
		c0-4.422,3.581-8.008,8.003-8.008S162.338,70.078,162.338,74.5"/>
	<path style="clip-path:url(#SVGID_2_);" d="M202.929,245.407H49.383l-3.195-12.79l147.513-0.004l-5.649-8.282
		c-0.027-0.04-0.233-0.346-0.585-0.871l-0.002-0.005c-5.037-7.608-41.213-63.598-45.736-109.022
		c15.179,3.036,52.172,11.073,67.517,20.07l4.287,2.512l21.413-31.655l-63.629-66.968l-28.251-3.537V0.002L136.3,1.955
		c-1.318,0.382-32.648,9.671-58.694,38.794C54.268,66.842,31.26,114.192,51.729,192.672H37.715
		C25.835,138.848,31.367,90.759,53.783,53.378C65.84,33.282,79.919,21.04,87.48,15.387V2.571
		c-2.505,1.474-24.354,14.915-42.451,44.815c-17.235,28.467-34.118,77.909-16.695,151.798l0.962,4.084h36.398l-1.935-6.758
		C45.928,134.196,53.134,84.288,85.184,48.17c17.068-19.243,37.065-29.3,47.287-33.538v29.574l33.772,4.227l55.153,58.045
		l-11.201,16.556c-23.352-11.235-71.098-19.922-73.252-20.313l-6.418-1.155l0.184,6.516c1.191,42.414,30.788,94.04,43.228,113.939
		H32.621L41.11,256h169.28L202.929,245.407z"/>
</g>
</svg>
