<svg xmlns="http://www.w3.org/2000/svg" xmlns:xlink="http://www.w3.org/1999/xlink" width="256" height="256" viewBox="0 0 256 256"><defs><path id="a" d="M21 0h213.945v256H21z"/></defs><clipPath id="b"><use xlink:href="#a" overflow="visible"/></clipPath><path d="M162.338 74.5c0 4.422-3.587 8.006-8.009 8.006s-8.003-3.584-8.003-8.006c0-4.422 3.581-8.008 8.003-8.008s8.009 3.586 8.009 8.008" clip-path="url(#b)"/><path d="M202.929 245.407H49.383l-3.195-12.79 147.513-.004-5.649-8.282-.585-.871-.002-.005c-5.037-7.608-41.213-63.598-45.736-109.022 15.179 3.036 52.172 11.073 67.517 20.07l4.287 2.512 21.413-31.655-63.629-66.968-28.251-3.537V.002L136.3 1.955c-1.318.382-32.648 9.671-58.694 38.794-23.338 26.093-46.346 73.443-25.877 151.923H37.715c-11.88-53.824-6.348-101.913 16.068-139.294C65.84 33.282 79.919 21.04 87.48 15.387V2.571c-2.505 1.474-24.354 14.915-42.451 44.815-17.235 28.467-34.118 77.909-16.695 151.798l.962 4.084h36.398l-1.935-6.758C45.928 134.196 53.134 84.288 85.184 48.17c17.068-19.243 37.065-29.3 47.287-33.538v29.574l33.772 4.227 55.153 58.045-11.201 16.556c-23.352-11.235-71.098-19.922-73.252-20.313l-6.418-1.155.184 6.516c1.191 42.414 30.788 94.04 43.228 113.939H32.621L41.11 256h169.28l-7.461-10.593z" clip-path="url(#b)"/></svg>