<svg xmlns="http://www.w3.org/2000/svg" xmlns:xlink="http://www.w3.org/1999/xlink" width="505.428" height="111.262" viewBox="0 0 505.428 111.262"><defs><path id="a" d="M0 0h505.428v111.262H0z"/></defs><clipPath id="b"><use xlink:href="#a" overflow="visible"/></clipPath><path clip-path="url(#b)" fill="#FFF" d="M135.763 74.258h-6.501V37.005h15.281c2.611 0 4.839.142 6.623.42 1.931.302 3.526.921 4.742 1.842 1.261.957 2.168 2.312 2.698 4.028.493 1.599.733 3.605.733 6.132s-.24 4.533-.732 6.132c-.532 1.722-1.444 3.071-2.71 4.01-1.211.897-2.803 1.506-4.732 1.807-1.783.279-4.011.42-6.622.42h-8.78v12.462zm0-18.154h8.888c1.646 0 3.059-.053 4.197-.157.957-.086 1.72-.319 2.268-.694.496-.339.86-.878 1.113-1.647.297-.907.447-2.258.447-4.016v-.324c0-1.724-.151-3.068-.449-3.996-.256-.791-.626-1.349-1.129-1.706-.544-.385-1.301-.624-2.249-.709-1.139-.104-2.552-.157-4.198-.157h-8.888v13.406zm60.051 18.311c-.25 0-.494-.008-.733-.025-.95-.065-1.896-.342-2.808-.821-.863-.45-1.757-1.126-2.654-2.003-.859-.84-1.822-1.981-2.863-3.396l-4.68-6.374h-9.089v12.463h-6.501V37.005h15.281c2.611 0 4.839.142 6.622.42 1.931.302 3.527.921 4.743 1.841 1.26.958 2.168 2.312 2.698 4.029.493 1.598.733 3.604.733 6.132 0 1.988-.145 3.694-.432 5.069-.308 1.48-.843 2.728-1.588 3.708-.763 1.002-1.772 1.783-2.998 2.321-.589.259-1.25.478-1.977.655l2.839 3.688c.79 1.03 1.478 1.841 2.046 2.408.531.53 1.013.926 1.435 1.172.36.211.694.335.994.367.381.043.791.035 1.22-.022l1.83-.246-1.152 5.552-.892.143c-.723.114-1.418.173-2.074.173m-22.827-18.311h8.888c1.642 0 3.047-.06 4.178-.181.956-.102 1.72-.35 2.269-.738.504-.357.873-.915 1.128-1.707.299-.927.45-2.289.45-4.05 0-1.833-.152-3.243-.452-4.191-.253-.798-.616-1.351-1.11-1.688-.546-.374-1.309-.608-2.265-.694-1.14-.104-2.552-.157-4.198-.157h-8.888v13.406zm52.103 18.748c-2.479 0-4.841-.218-7.023-.646-2.308-.453-4.353-1.397-6.078-2.806-1.734-1.414-3.118-3.429-4.114-5.988-.972-2.497-1.465-5.806-1.465-9.834s.493-7.337 1.465-9.835c.996-2.559 2.38-4.574 4.114-5.989 1.726-1.407 3.77-2.351 6.078-2.805 2.182-.428 4.544-.645 7.023-.645 2.478 0 4.841.217 7.023.645 2.307.454 4.352 1.398 6.078 2.805 1.734 1.416 3.119 3.431 4.114 5.989.972 2.498 1.465 5.806 1.465 9.835s-.493 7.337-1.465 9.834c-.995 2.559-2.38 4.573-4.114 5.988-1.726 1.408-3.771 2.353-6.078 2.806-2.182.428-4.545.646-7.023.646m0-32.91c-1.711 0-3.373.079-4.941.236-1.385.139-2.562.591-3.597 1.383-1.016.777-1.859 2.075-2.505 3.858-.682 1.879-1.028 4.623-1.028 8.159 0 2.386.164 4.414.487 6.027.314 1.574.742 2.867 1.27 3.843.499.924 1.09 1.641 1.758 2.133a6.858 6.858 0 0 0 2.291 1.112c.893.243 1.86.393 2.875.441 2.154.104 4.5.106 6.726 0a13.445 13.445 0 0 0 2.874-.441 7.174 7.174 0 0 0 2.329-1.12c.682-.492 1.279-1.208 1.774-2.124.529-.976.956-2.27 1.271-3.843.323-1.618.487-3.646.487-6.028 0-3.531-.353-6.273-1.051-8.149-.664-1.785-1.523-3.084-2.555-3.862-1.056-.796-2.235-1.25-3.606-1.389a48.461 48.461 0 0 0-4.859-.236m43.213 32.91a46.858 46.858 0 0 1-8.359-.778 58.246 58.246 0 0 1-3.891-.856c-1.27-.325-2.355-.713-3.226-1.148l-1.199-.602.63-1.184c.288-.541.56-1.047.813-1.516.262-.485.568-1.005.913-1.543l.584-.909 1.002.401c.52.207 1.209.451 2.053.727.836.272 1.834.534 2.967.772 1.143.243 2.431.455 3.83.63a35.22 35.22 0 0 0 4.37.259c1.49 0 2.835-.035 3.994-.104 1.018-.061 1.879-.268 2.559-.615.591-.303 1.037-.771 1.362-1.435.358-.732.541-1.854.541-3.334 0-1.129-.155-1.753-.285-2.079a1.892 1.892 0 0 0-.743-.901c-.441-.288-1.075-.525-1.885-.705-.964-.216-2.161-.464-3.589-.75a389.114 389.114 0 0 1-7.729-1.541c-2.23-.473-4.08-1.096-5.497-1.853-1.548-.827-2.694-1.961-3.41-3.368-.693-1.365-1.03-3.103-1.03-5.312 0-1.803.392-3.416 1.165-4.794a9.755 9.755 0 0 1 3.171-3.391c1.282-.85 2.776-1.499 4.439-1.93 2.767-.714 5.896-.72 9.156-.496a51.04 51.04 0 0 1 3.905.414c1.259.187 2.448.412 3.537.669 1.147.274 2.151.613 2.985 1.01l1.322.63-3.112 4.997-.993-.354a23.11 23.11 0 0 0-1.886-.56 46.143 46.143 0 0 0-2.675-.603 39.55 39.55 0 0 0-3.078-.47 28.349 28.349 0 0 0-3.142-.179c-2.963 0-5.2.407-6.649 1.211-1.217.674-1.808 1.95-1.808 3.9 0 1.059.054 1.859.162 2.377.065.325.199.562.422.747.206.173.634.426 1.511.654.859.224 2.089.5 3.656.82 1.998.429 4.02.815 6.023 1.152 2.116.357 4.067.89 5.802 1.587h.001c1.835.739 3.368 1.789 4.56 3.12 1.271 1.422 1.937 3.36 1.979 5.759 0 2.312-.396 4.229-1.175 5.726a9.122 9.122 0 0 1-3.331 3.611c-1.367.844-3.009 1.421-4.881 1.717-1.771.278-3.736.42-5.841.42m31.141-.594h-6.501V37.005h15.281c2.611 0 4.839.142 6.623.42 1.931.302 3.526.921 4.741 1.842h.001c1.259.956 2.168 2.31 2.698 4.028.492 1.598.732 3.605.732 6.132s-.24 4.534-.731 6.131c-.533 1.725-1.445 3.073-2.711 4.011-1.211.897-2.803 1.506-4.731 1.807-1.783.279-4.011.42-6.622.42h-8.78v12.462zm0-18.154h8.889c1.646 0 3.058-.053 4.197-.157.956-.086 1.72-.319 2.268-.694.496-.339.859-.877 1.113-1.647.296-.905.446-2.256.446-4.016v-.324c0-1.726-.151-3.07-.449-3.995-.256-.792-.626-1.351-1.129-1.707-.544-.385-1.301-.624-2.248-.709-1.141-.104-2.553-.157-4.198-.157h-8.889v13.406zm49.242 18.855c-2.775 0-5.279-.228-7.44-.675-2.303-.477-4.284-1.439-5.89-2.865-1.605-1.423-2.84-3.411-3.665-5.909-.796-2.407-1.199-5.585-1.199-9.447 0-4.008.432-7.324 1.282-9.858.877-2.61 2.141-4.683 3.756-6.16 1.618-1.477 3.559-2.488 5.765-3.005 2.085-.489 4.409-.736 6.907-.736 2.684 0 5.106.267 7.198.795 2.209.558 4.104 1.584 5.63 3.049l.001.001c1.519 1.46 2.687 3.45 3.47 5.915.757 2.386 1.141 5.46 1.141 9.136v2.711h-28.507c.087 2.255.332 4.114.729 5.544.437 1.571 1.111 2.793 2.005 3.628.895.834 2.096 1.404 3.569 1.695 1.634.324 3.673.488 6.06.488a17.96 17.96 0 0 0 3.092-.277 39.418 39.418 0 0 0 5.844-1.487c.839-.285 1.506-.517 2.005-.695l.994-.355 3.112 4.996-1.32.632c-.81.386-1.799.756-2.94 1.098a40.288 40.288 0 0 1-3.595.891c-1.271.26-2.603.473-3.96.639a33.77 33.77 0 0 1-4.044.251m-11.447-22.794h21.609c-.145-2.015-.433-3.683-.858-4.971-.484-1.47-1.146-2.602-1.968-3.363-.813-.754-1.806-1.24-3.031-1.482-1.366-.27-2.979-.407-4.79-.407-1.582 0-3.084.095-4.463.284-1.225.169-2.27.59-3.192 1.286-.899.678-1.653 1.777-2.241 3.267-.528 1.326-.883 3.134-1.066 5.386m66.82 22.25c-.25 0-.494-.008-.732-.025-.95-.065-1.896-.342-2.809-.821-.863-.45-1.757-1.125-2.653-2.003-.861-.842-1.824-1.983-2.864-3.396l-4.681-6.373h-9.088V74.26h-6.501V37.005h15.281c2.611 0 4.839.142 6.621.42 1.932.302 3.528.921 4.744 1.842 1.26.957 2.168 2.312 2.698 4.028.492 1.598.732 3.603.732 6.132 0 1.984-.146 3.689-.432 5.069-.31 1.482-.844 2.73-1.59 3.709-.762 1-1.771 1.782-2.996 2.319-.589.26-1.25.479-1.979.656l2.84 3.688c.79 1.029 1.479 1.841 2.047 2.408.53.53 1.013.926 1.435 1.172.36.211.694.335.993.367a5.07 5.07 0 0 0 1.22-.022l1.83-.246-1.151 5.552-.893.143a13.33 13.33 0 0 1-2.072.173m-22.828-18.311h8.888c1.643 0 3.048-.06 4.179-.181.955-.102 1.719-.35 2.269-.738.503-.356.872-.915 1.128-1.708.299-.926.45-2.288.45-4.049 0-1.833-.151-3.243-.452-4.191-.254-.798-.616-1.351-1.11-1.688-.547-.374-1.31-.608-2.265-.694-1.14-.104-2.552-.157-4.198-.157h-8.888v13.406zm35.634-19.098h6.501v37.252h-6.501zm33.692 37.252h-6.501v-31.56h-12.497l.999-5.692h31.196l-.999 5.692h-12.198zm39.329 0h-6.501V58.576c-2.19-3.163-4.405-6.36-6.646-9.59a1860.647 1860.647 0 0 0-6.928-9.919l-1.45-2.061h7.848l.392.567c1.189 1.731 2.38 3.49 3.569 5.276a445.318 445.318 0 0 0 3.551 5.243 80.98 80.98 0 0 1 2.275 3.51c.33.538.646 1.051.945 1.543.286-.475.595-.981.926-1.518a64.507 64.507 0 0 1 2.507-3.773 185.133 185.133 0 0 1 3.56-5.149 338.087 338.087 0 0 0 3.6-5.132l.39-.567h7.506L489.886 58.59v15.668zM61.428 32.378a3.48 3.48 0 1 1-6.96 0 3.48 3.48 0 0 1 6.96 0"/><path clip-path="url(#b)" fill="#FFF" d="M79.07 106.658H12.336l-1.389-5.559 64.112-.001-2.455-3.6c-.012-.018-.102-.15-.254-.38l-.001-.001c-2.19-3.307-17.912-27.641-19.878-47.383 6.597 1.319 22.675 4.812 29.344 8.722l1.863 1.093 9.307-13.758L65.33 16.685l-12.278-1.536V.001l-2.94.849c-.574.165-14.19 4.203-25.51 16.86C14.458 29.051 4.459 49.63 13.355 83.739h-6.09C2.102 60.346 4.506 39.446 14.248 23.2c5.24-8.735 11.36-14.055 14.646-16.512V1.117c-1.089.641-10.585 6.483-18.451 19.478-7.489 12.372-14.827 33.86-7.255 65.974l.418 1.774h15.819l-.84-2.937c-7.751-27.082-4.619-48.774 9.311-64.472C35.313 12.573 44.005 8.201 48.448 6.36v12.853l14.677 1.837 23.971 25.228-4.868 7.195c-10.15-4.883-30.901-8.659-31.837-8.828l-2.789-.503.08 2.833c.518 18.434 13.381 40.87 18.787 49.519H5.051l3.69 14.769h73.572l-3.243-4.605z"/></svg>