<?xml version="1.0" encoding="utf-8"?>
<!-- Generator: Adobe Illustrator 16.0.0, SVG Export Plug-In . SVG Version: 6.00 Build 0)  -->
<!DOCTYPE svg PUBLIC "-//W3C//DTD SVG 1.1//EN" "http://www.w3.org/Graphics/SVG/1.1/DTD/svg11.dtd">
<svg version="1.1" id="Layer_1" xmlns="http://www.w3.org/2000/svg" xmlns:xlink="http://www.w3.org/1999/xlink" x="0px" y="0px"
	 width="256px" height="256px" viewBox="0 0 256 256" style="enable-background:new 0 0 256 256;" xml:space="preserve">
<g>
	<defs>
		<rect id="SVGID_1_" x="2" width="251.906" height="256.63"/>
	</defs>
	<clipPath id="SVGID_2_">
		<use xlink:href="#SVGID_1_"  style="overflow:visible;"/>
	</clipPath>
	<path style="clip-path:url(#SVGID_2_);" d="M114.361,0.01C81.222,0.852,52.278,18.801,36.07,45.319h26.642
		c13.268-14.557,32.528-23.562,54.005-23.562h22.655c21.479,0,40.555,9.004,53.825,23.562h26.823
		C203.412,18.155,173.526,0.01,139.372,0.01h-22.655C115.9,0.01,115.172-0.013,114.361,0.01z M27.915,62.534
		c-8.039,0-15.104,4.403-19.392,10.148C4.233,78.429,2,85.625,2,93.342v132.48c0,7.717,2.235,14.914,6.523,20.658
		c4.288,5.749,11.353,10.149,19.392,10.149h200.258c8.037,0,14.919-4.4,19.207-10.149c4.291-5.744,6.526-12.941,6.526-20.658V93.342
		c0-7.714-2.235-14.916-6.526-20.66c-4.288-5.745-11.172-10.148-19.207-10.148H27.915z M27.915,84.282h200.258
		c0.235,0,0.702-0.038,1.81,1.451c1.115,1.485,2.176,4.244,2.176,7.611v132.48c0,3.369-1.061,6.123-2.176,7.611
		c-1.107,1.486-1.574,1.632-1.81,1.632H27.915c-0.237,0-0.884-0.143-1.995-1.632c-1.11-1.488-2.175-4.242-2.175-7.611V93.344
		c0-3.367,1.065-6.126,2.175-7.611C27.029,84.245,27.676,84.282,27.915,84.282z M38.785,127.597
		c-6.004-0.026-10.894,4.823-10.917,10.831c-0.024,6.005,4.824,10.892,10.829,10.917h0.087h52.92v33.524
		c0.086,5.939,4.932,10.706,10.873,10.693h50.927c5.937,0,10.786-4.754,10.874-10.693v-33.524h52.915
		c6.01-0.028,10.856-4.912,10.834-10.917c-0.027-5.97-4.859-10.808-10.834-10.831H38.785z M113.455,149.345h29.178V172h-29.178
		V149.345z"/>
</g>
</svg>
