<svg xmlns="http://www.w3.org/2000/svg" xmlns:xlink="http://www.w3.org/1999/xlink" width="256" height="256" viewBox="0 0 256 256"><defs><path id="a" d="M2 0h251.906v256.63H2z"/></defs><clipPath id="b"><use xlink:href="#a" overflow="visible"/></clipPath><path d="M114.361.01C81.222.852 52.278 18.801 36.07 45.319h26.642C75.98 30.762 95.24 21.757 116.717 21.757h22.655c21.479 0 40.555 9.004 53.825 23.562h26.823C203.412 18.155 173.526.01 139.372.01h-22.655c-.817 0-1.545-.023-2.356 0zM27.915 62.534c-8.039 0-15.104 4.403-19.392 10.148C4.233 78.429 2 85.625 2 93.342v132.48c0 7.717 2.235 14.914 6.523 20.658 4.288 5.749 11.353 10.149 19.392 10.149h200.258c8.037 0 14.919-4.4 19.207-10.149 4.291-5.744 6.526-12.941 6.526-20.658V93.342c0-7.714-2.235-14.916-6.526-20.66-4.288-5.745-11.172-10.148-19.207-10.148H27.915zm0 21.748h200.258c.235 0 .702-.038 1.81 1.451 1.115 1.485 2.176 4.244 2.176 7.611v132.48c0 3.369-1.061 6.123-2.176 7.611-1.107 1.486-1.574 1.632-1.81 1.632H27.915c-.237 0-.884-.143-1.995-1.632-1.11-1.488-2.175-4.242-2.175-7.611V93.344c0-3.367 1.065-6.126 2.175-7.611 1.109-1.488 1.756-1.451 1.995-1.451zm10.87 43.315c-6.004-.026-10.894 4.823-10.917 10.831-.024 6.005 4.824 10.892 10.829 10.917h53.007v33.524c.086 5.939 4.932 10.706 10.873 10.693h50.927c5.937 0 10.786-4.754 10.874-10.693v-33.524h52.915c6.01-.028 10.856-4.912 10.834-10.917-.027-5.97-4.859-10.808-10.834-10.831H38.785zm74.67 21.748h29.178V172h-29.178v-22.655z" clip-path="url(#b)"/></svg>