<?xml version="1.0" encoding="utf-8"?>
<!-- Generator: Adobe Illustrator 16.0.0, SVG Export Plug-In . SVG Version: 6.00 Build 0)  -->
<!DOCTYPE svg PUBLIC "-//W3C//DTD SVG 1.1//EN" "http://www.w3.org/Graphics/SVG/1.1/DTD/svg11.dtd">
<svg version="1.1" id="Layer_1" xmlns="http://www.w3.org/2000/svg" xmlns:xlink="http://www.w3.org/1999/xlink" x="0px" y="0px"
	 width="256px" height="256px" viewBox="0 0 256 256" style="enable-background:new 0 0 256 256;" xml:space="preserve">
<g>
	<defs>
		<rect id="SVGID_1_" x="34" width="186.002" height="256"/>
	</defs>
	<clipPath id="SVGID_2_">
		<use xlink:href="#SVGID_1_"  style="overflow:visible;"/>
	</clipPath>
	<path style="clip-path:url(#SVGID_2_);fill:#40c3f7;" d="M218.07,243.729l-32.011-34.855h7.113c11.74,0,21.341-9.604,21.341-21.341V77.271
		c0-11.026-8.18-19.918-18.851-21.341V20.007c0-2.845-1.778-5.335-4.269-6.401c-42.682-18.14-86.073-18.14-128.754,0
		c-2.489,1.066-4.267,3.557-4.267,6.401v35.924c-10.67,1.066-18.852,10.314-18.852,21.341v110.614
		c0,11.74,9.604,21.341,21.341,21.341h7.113l-32.011,34.859c-2.845,2.845-2.489,7.114,0.356,9.959c2.845,2.49,7.47,2.49,9.958-0.358
		l14.228-15.647h132.667l14.228,15.647c2.848,3.203,7.113,2.849,9.962,0.358C220.562,251.2,220.919,246.931,218.07,243.729
		 M134.132,13.961c15.651,0.71,31.657,4.267,47.305,10.67v30.943h-47.305V13.961z M72.6,24.632
		c15.649-6.047,31.655-9.604,47.305-10.67v41.613H72.6V24.632z M60.862,194.646c-3.913,0-7.114-3.202-7.114-7.113V77.271
		c0-3.913,3.201-7.114,7.114-7.114h132.669c3.911,0,7.113,3.201,7.113,7.114v110.614c0,3.915-3.202,7.114-7.113,7.114H60.862
		V194.646z M73.667,223.454l13.161-14.581h80.028l13.16,14.581H73.667z"/>
	<path style="clip-path:url(#SVGID_2_);fill:#40c3f7;" d="M127.018,88.298c-14.227,0-25.963,11.737-25.963,25.964s11.736,25.966,25.963,25.966
		c14.228,0,25.964-11.739,25.964-25.966S141.246,88.298,127.018,88.298 M127.018,126c-6.401,0-11.736-5.335-11.736-11.738
		c0-6.401,5.335-11.737,11.736-11.737c6.402,0,11.737,5.335,11.737,11.737C138.755,120.665,133.42,126,127.018,126"/>
	<path style="clip-path:url(#SVGID_2_);fill:#40c3f7;" d="M85.403,162.635H80.78c-3.913,0-7.114,3.202-7.114,7.113s3.201,7.113,7.114,7.113h4.623
		c3.913,0,7.113-3.202,7.113-7.113S89.316,162.635,85.403,162.635"/>
	<path style="clip-path:url(#SVGID_2_);fill:#40c3f7;" d="M173.257,162.635h-4.623c-3.915,0-7.114,3.202-7.114,7.113s3.199,7.113,7.114,7.113
		h4.623c3.911,0,7.113-3.202,7.113-7.113S177.168,162.635,173.257,162.635"/>
</g>
</svg>
