<svg xmlns="http://www.w3.org/2000/svg" xmlns:xlink="http://www.w3.org/1999/xlink" width="256" height="256" viewBox="0 0 256 256"><defs><path id="a" d="M34 0h186.002v256H34z"/></defs><clipPath id="b"><use xlink:href="#a" overflow="visible"/></clipPath><path d="M218.07 243.729l-32.011-34.855h7.113c11.74 0 21.341-9.604 21.341-21.341V77.271c0-11.026-8.18-19.918-18.851-21.341V20.007c0-2.845-1.778-5.335-4.269-6.401-42.682-18.14-86.073-18.14-128.754 0-2.489 1.066-4.267 3.557-4.267 6.401v35.924C47.702 56.997 39.52 66.245 39.52 77.272v110.614c0 11.74 9.604 21.341 21.341 21.341h7.113l-32.011 34.859c-2.845 2.845-2.489 7.114.356 9.959 2.845 2.49 7.47 2.49 9.958-.358l14.228-15.647h132.667l14.228 15.647c2.848 3.203 7.113 2.849 9.962.358 3.2-2.845 3.557-7.114.708-10.316M134.132 13.961c15.651.71 31.657 4.267 47.305 10.67v30.943h-47.305V13.961zM72.6 24.632c15.649-6.047 31.655-9.604 47.305-10.67v41.613H72.6V24.632zM60.862 194.646c-3.913 0-7.114-3.202-7.114-7.113V77.271c0-3.913 3.201-7.114 7.114-7.114h132.669c3.911 0 7.113 3.201 7.113 7.114v110.614c0 3.915-3.202 7.114-7.113 7.114H60.862v-.353zm12.805 28.808l13.161-14.581h80.028l13.16 14.581H73.667z" clip-path="url(#b)" fill="#40c3f7"/><path d="M127.018 88.298c-14.227 0-25.963 11.737-25.963 25.964s11.736 25.966 25.963 25.966c14.228 0 25.964-11.739 25.964-25.966s-11.736-25.964-25.964-25.964m0 37.702c-6.401 0-11.736-5.335-11.736-11.738 0-6.401 5.335-11.737 11.736-11.737 6.402 0 11.737 5.335 11.737 11.737 0 6.403-5.335 11.738-11.737 11.738m-41.615 36.635H80.78c-3.913 0-7.114 3.202-7.114 7.113s3.201 7.113 7.114 7.113h4.623c3.913 0 7.113-3.202 7.113-7.113s-3.2-7.113-7.113-7.113m87.854 0h-4.623c-3.915 0-7.114 3.202-7.114 7.113s3.199 7.113 7.114 7.113h4.623c3.911 0 7.113-3.202 7.113-7.113s-3.202-7.113-7.113-7.113" clip-path="url(#b)" fill="#40c3f7"/></svg>