<svg xmlns="http://www.w3.org/2000/svg" xmlns:xlink="http://www.w3.org/1999/xlink" width="256" height="256" viewBox="0 0 256 256"><defs><path id="a" d="M0 0h256v255.835H0z"/></defs><clipPath id="b"><use xlink:href="#a" overflow="visible"/></clipPath><path d="M247.563 71.773c-5.802-14.292-14.306-27.097-25.27-38.048-10.968-10.978-23.768-19.487-38.064-25.289C170.443 2.848 155.889.01 140.945 0h-.043c-14.919 0-29.463 2.826-43.226 8.4-14.258 5.773-27.068 14.258-38.07 25.24-4.859 4.857-4.869 12.734-.01 17.589 4.855 4.872 12.732 4.872 17.592.022 8.625-8.616 18.66-15.269 29.828-19.786 10.778-4.369 22.179-6.584 33.886-6.584h.034c11.721.01 23.15 2.235 33.948 6.609 11.191 4.543 21.217 11.211 29.828 19.824 8.601 8.594 15.264 18.627 19.802 29.809 4.379 10.808 6.6 22.228 6.6 33.927 0 11.694-2.221 23.102-6.595 33.895-4.548 11.182-11.211 21.212-19.807 29.799-8.626 8.611-18.656 15.269-29.823 19.793-10.778 4.364-22.169 6.575-33.861 6.575-11.721-.049-23.175-2.221-34.012-6.614-11.177-4.529-21.212-11.201-29.818-19.808-8.601-8.597-15.264-18.626-19.812-29.808-4.374-10.798-6.594-22.218-6.594-33.932 0-6.872-5.569-12.44-12.44-12.44-6.872 0-12.44 5.569-12.44 12.44 0 14.938 2.833 29.504 8.421 43.287 4.238 10.438 9.952 20.045 16.965 28.754L3.649 234.599c-4.864 4.854-4.864 12.732-.005 17.592a12.403 12.403 0 0 0 8.801 3.645c3.183 0 6.366-1.215 8.791-3.64l47.662-47.614c8.708 7.032 18.335 12.742 28.769 16.979 13.801 5.589 28.365 8.427 43.283 8.432h.088c14.904 0 29.439-2.824 43.196-8.397 14.263-5.769 27.067-14.263 38.06-25.245 10.974-10.954 19.478-23.749 25.284-38.046 5.589-13.791 8.422-28.341 8.422-43.25-.01-14.925-2.848-29.484-8.437-43.282m-76.804 90.623a12.392 12.392 0 0 0 8.796 3.645c3.188 0 6.366-1.215 8.801-3.64 12.645-12.645 19.604-29.468 19.604-47.375 0-17.91-6.959-34.743-19.604-47.388-4.864-4.862-12.737-4.862-17.597 0-4.864 4.855-4.864 12.732 0 17.589 7.945 7.953 12.319 18.532 12.319 29.798 0 11.265-4.374 21.839-12.319 29.775-4.86 4.859-4.86 12.736 0 17.596" clip-path="url(#b)"/></svg>