<?xml version="1.0" encoding="utf-8"?>
<!-- Generator: Adobe Illustrator 16.0.0, SVG Export Plug-In . SVG Version: 6.00 Build 0)  -->
<!DOCTYPE svg PUBLIC "-//W3C//DTD SVG 1.1//EN" "http://www.w3.org/Graphics/SVG/1.1/DTD/svg11.dtd">
<svg version="1.1" id="Layer_1" xmlns="http://www.w3.org/2000/svg" xmlns:xlink="http://www.w3.org/1999/xlink" x="0px" y="0px"
	 width="80px" height="80px" viewBox="0 0 80 80" style="enable-background:new 0 0 80 80;" xml:space="preserve">
<g>
	<defs>
		<rect id="SVGID_1_" width="80" height="80"/>
	</defs>
	<clipPath id="SVGID_2_">
		<use xlink:href="#SVGID_1_"  style="overflow:visible;"/>
	</clipPath>
	<path style="clip-path:url(#SVGID_2_);fill:#FFFFFF;" d="M32.039,21.503c-1.381-0.02-2.516,1.084-2.535,2.465
		c-0.02,1.38,1.084,2.515,2.464,2.535c0.024,0,0.047,0,0.071,0h23.908c1.381,0.02,2.516-1.084,2.536-2.465
		c0.019-1.38-1.084-2.515-2.465-2.535c-0.024,0-0.048,0-0.071,0H32.039z"/>
	<path style="clip-path:url(#SVGID_2_);fill:#FFFFFF;" d="M31.828,37.501c-1.381-0.02-2.516,1.084-2.535,2.465
		c-0.02,1.379,1.084,2.515,2.464,2.535c0.024,0,0.047,0,0.071,0h24.119c1.381,0.021,2.516-1.084,2.536-2.465
		c0.019-1.38-1.084-2.515-2.465-2.535c-0.024,0-0.048,0-0.071,0H31.828z"/>
	<path style="clip-path:url(#SVGID_2_);fill:#FFFFFF;" d="M23.979,21.503c1.379,0,2.498,1.119,2.498,2.5c0,1.38-1.119,2.5-2.498,2.5
		c-1.379,0-2.498-1.12-2.498-2.5C21.482,22.622,22.601,21.503,23.979,21.503"/>
	<path style="clip-path:url(#SVGID_2_);fill:#FFFFFF;" d="M31.973,53.501c-1.381-0.02-2.516,1.084-2.535,2.465
		c-0.02,1.38,1.084,2.516,2.464,2.535c0.024,0,0.047,0,0.071,0h23.975c1.381,0.021,2.516-1.084,2.535-2.465
		c0.021-1.38-1.084-2.515-2.465-2.535c-0.022,0-0.047,0-0.07,0H31.973z"/>
	<path style="clip-path:url(#SVGID_2_);fill:#FFFFFF;" d="M23.979,37.502c1.379,0,2.498,1.119,2.498,2.5c0,1.38-1.119,2.5-2.498,2.5
		c-1.379,0-2.498-1.12-2.498-2.5C21.482,38.621,22.601,37.502,23.979,37.502"/>
	<path style="clip-path:url(#SVGID_2_);fill:#FFFFFF;" d="M23.979,53.501c1.379,0,2.498,1.118,2.498,2.5c0,1.38-1.119,2.5-2.498,2.5
		c-1.379,0-2.498-1.12-2.498-2.5C21.482,54.619,22.601,53.501,23.979,53.501"/>
	<path style="clip-path:url(#SVGID_2_);fill:#FFFFFF;" d="M40,0C17.938,0,0,17.938,0,40c0,22.062,17.938,40,40,40
		c22.062,0,40-17.938,40-40C80,17.938,62.062,0,40,0 M40,5c19.36,0,35,15.64,35,35c0,19.36-15.64,35-35,35C20.64,75,5,59.36,5,40
		C5,20.64,20.64,5,40,5"/>
</g>
</svg>
